<?xml version="1.0" encoding="utf-8"?>
<!-- Generator: Adobe Illustrator 27.5.0, SVG Export Plug-In . SVG Version: 6.00 Build 0)  -->
<svg version="1.1" xmlns="http://www.w3.org/2000/svg" xmlns:xlink="http://www.w3.org/1999/xlink" x="0px" y="0px"
	 viewBox="0 0 750 500" style="enable-background:new 0 0 750 500;" xml:space="preserve">
<g id="BACKGROUND">
	<rect style="fill:#EAF1F4;" width="750" height="500"/>
</g>
<g id="OBJECTS">
	<g>
		<g>
			<path style="fill:#682335;" d="M182.966,166.346c-31.021-83.869-32.794-128.997-32.794-128.997s-17.563,6.947-15.411,29.655
				c0,0-12.349-3.175-10.621,13.499c0,0-12.383,4.284-7.232,20.091c0,0-11.543,5.34-3.566,19.694c0,0-6.411,8.952,2.124,20.34
				C115.466,140.628,129.95,175.549,182.966,166.346z"/>
		</g>
		<g>
			<g>
				<path style="fill:#F2AC30;" d="M130.593,190.746c-0.193,0-0.39-0.033-0.582-0.104c-14.485-5.329-23.324-13.16-21.495-19.042
					c1.654-5.319,11.126-6.191,25.988-2.391c0.902,0.23,1.446,1.148,1.215,2.049c-0.23,0.901-1.15,1.444-2.049,1.215
					c-16.045-4.101-21.364-1.711-21.936,0.128c-0.904,2.907,5.35,9.695,19.441,14.879c0.873,0.321,1.321,1.29,0.999,2.163
					C131.923,190.324,131.278,190.746,130.593,190.746z"/>
			</g>
			<g>
				<path style="fill:#BF6E1D;" d="M134.399,186.752c1.09-0.125,2.254-0.025,3.404,0.349c1.145,0.378,2.257,1.081,3.098,2.058
					c1.704,1.978,2.036,4.831,1.129,7.035c-0.856,2.251-2.847,3.88-4.924,4.387c-2.085,0.548-4.14,0.213-5.888-0.539
					c1.904-0.177,3.701-0.574,5.08-1.437c1.379-0.848,2.249-2.114,2.497-3.43c0.256-1.319-0.115-2.604-0.871-3.44
					c-0.756-0.855-1.978-1.357-3.523-1.614l-0.085-0.014c-0.923-0.153-1.547-1.026-1.394-1.949
					C133.047,187.395,133.667,186.836,134.399,186.752z"/>
			</g>
			<g>
				<path style="fill:#DD8924;" d="M130.593,186.565c1.09-0.125,2.254-0.025,3.404,0.349c1.145,0.378,2.257,1.081,3.098,2.058
					c1.704,1.978,2.036,4.831,1.129,7.035c-0.856,2.252-2.847,3.88-4.924,4.387c-2.085,0.548-4.14,0.213-5.888-0.539
					c1.905-0.177,3.701-0.574,5.08-1.437c1.379-0.848,2.249-2.114,2.497-3.43c0.256-1.319-0.115-2.604-0.871-3.44
					c-0.756-0.855-1.978-1.358-3.523-1.614l-0.085-0.014c-0.923-0.153-1.547-1.026-1.394-1.949
					C129.24,187.208,129.861,186.649,130.593,186.565z"/>
			</g>
			<g>
				<path style="fill:#F2AC30;" d="M128.159,186.565c1.09-0.125,2.254-0.025,3.404,0.349c1.145,0.378,2.257,1.081,3.098,2.058
					c1.704,1.978,2.036,4.831,1.129,7.035c-0.856,2.252-2.847,3.88-4.924,4.387c-2.085,0.548-4.14,0.213-5.888-0.539
					c1.905-0.177,3.701-0.574,5.08-1.437c1.379-0.848,2.249-2.114,2.497-3.43c0.256-1.319-0.115-2.604-0.871-3.44
					c-0.756-0.855-1.978-1.358-3.523-1.614l-0.085-0.014c-0.923-0.153-1.547-1.026-1.394-1.949
					C126.807,187.208,127.427,186.649,128.159,186.565z"/>
			</g>
		</g>
		<g>
			<path style="fill:#EF3F1D;" d="M101.015,142.396l-80.741,13.16c0,0,17.608,22.522,35.977,16.924
				c18.369-5.599,50.282-24.441,50.282-24.441L101.015,142.396z"/>
		</g>
		<g>
			<path style="fill:#FF684A;" d="M103.573,144.424l-67.166,21.24c0,0,17.8,17.005,32.758,9.953
				c14.957-7.052,39.811-27.07,39.811-27.07L103.573,144.424z"/>
		</g>
		<g>
			<g>
				<path style="fill:#D17D19;" d="M204.406,157.193c1.613,4.123,17.478-2.51,34.507-2.51h-32.984L204.406,157.193z"/>
			</g>
			<g>
				<path style="fill:#FFCD40;" d="M206.646,139.267c27.068,0,31.55,8.246,32.267,15.416h-31.908L206.646,139.267z"/>
			</g>
			<g>
				<path style="fill:#ED9B2F;" d="M209.429,139.3c-0.902-0.02-1.825-0.033-2.783-0.033l0.359,15.416h7.423
					c0.005-0.209,0.016-0.417,0.016-0.628C214.444,148.526,212.579,143.42,209.429,139.3z"/>
			</g>
			<g>
				<path style="fill:#252538;" d="M231.277,143.486c-2.771,2.2-4.554,5.592-4.554,9.405c0,0.611,0.06,1.206,0.148,1.793h12.041
					C238.521,150.764,236.994,146.526,231.277,143.486z"/>
			</g>
			<g>
				<path style="fill:#FFDC83;" d="M226.324,143.493c-0.105,0.802-2.598,1.137-5.567,0.748c-2.969-0.389-5.291-1.355-5.186-2.157
					c0.105-0.802,2.598-1.137,5.567-0.748C224.107,141.725,226.429,142.691,226.324,143.493z"/>
			</g>
		</g>
		<g>
			<g>
				<path style="fill:#F2AC30;" d="M114.37,192.992c-0.193,0-0.39-0.033-0.582-0.104c-14.485-5.329-23.324-13.16-21.495-19.042
					c1.654-5.319,11.127-6.192,25.988-2.391c0.902,0.23,1.446,1.148,1.215,2.049c-0.23,0.902-1.15,1.444-2.049,1.215
					c-16.046-4.102-21.364-1.71-21.936,0.128c-0.904,2.907,5.35,9.695,19.441,14.879c0.873,0.321,1.321,1.289,0.999,2.163
					C115.7,192.57,115.055,192.992,114.37,192.992z"/>
			</g>
			<g>
				<path style="fill:#BF6E1D;" d="M118.176,188.998c1.09-0.125,2.254-0.025,3.404,0.349c1.145,0.378,2.257,1.081,3.098,2.058
					c1.704,1.978,2.036,4.831,1.129,7.035c-0.856,2.252-2.846,3.88-4.924,4.387c-2.085,0.548-4.14,0.214-5.888-0.539
					c1.905-0.177,3.701-0.574,5.08-1.437c1.379-0.848,2.249-2.114,2.497-3.43c0.256-1.319-0.115-2.604-0.871-3.44
					c-0.756-0.855-1.978-1.357-3.523-1.614l-0.085-0.014c-0.923-0.153-1.547-1.026-1.394-1.949
					C116.824,189.641,117.444,189.083,118.176,188.998z"/>
			</g>
			<g>
				<path style="fill:#DD8924;" d="M114.37,188.811c1.09-0.125,2.254-0.025,3.404,0.349c1.145,0.378,2.257,1.081,3.098,2.058
					c1.704,1.978,2.036,4.83,1.129,7.035c-0.856,2.251-2.847,3.88-4.924,4.387c-2.085,0.548-4.14,0.214-5.888-0.539
					c1.905-0.177,3.701-0.574,5.08-1.437c1.379-0.848,2.249-2.114,2.497-3.43c0.256-1.319-0.115-2.604-0.871-3.44
					c-0.756-0.855-1.978-1.357-3.523-1.614l-0.085-0.014c-0.923-0.153-1.547-1.026-1.394-1.949
					C113.017,189.454,113.638,188.895,114.37,188.811z"/>
			</g>
			<g>
				<path style="fill:#F2AC30;" d="M111.936,188.811c1.09-0.125,2.254-0.025,3.404,0.349c1.145,0.378,2.257,1.081,3.097,2.058
					c1.704,1.978,2.036,4.83,1.129,7.035c-0.856,2.251-2.846,3.88-4.924,4.387c-2.085,0.548-4.14,0.214-5.888-0.539
					c1.905-0.177,3.701-0.574,5.08-1.437c1.379-0.848,2.249-2.114,2.497-3.43c0.256-1.319-0.115-2.604-0.871-3.44
					c-0.756-0.855-1.978-1.357-3.523-1.614l-0.085-0.014c-0.923-0.153-1.547-1.026-1.394-1.949
					C110.584,189.454,111.204,188.895,111.936,188.811z"/>
			</g>
		</g>
		<g>
			<g>
				<g>
					<path style="fill:#EF3F1D;" d="M205.762,153.804c0,16.874-20.198,34.446-43.035,34.446c-51.477,0-69.697-30.886-70.258-41.743
						c-0.872-16.851,62.245-26.581,85.171-26.581C200.566,119.925,205.762,136.93,205.762,153.804z"/>
				</g>
				<g>
					<path style="fill:#FFFDF8;" d="M190.825,122.442c2.199,5.517,2.957,11.958,2.957,18.384c0,16.874-20.198,34.446-43.035,34.446
						c-25.059,0-42.235-7.32-53.331-16.085c8.392,13.025,28.216,29.063,65.311,29.063c22.837,0,43.035-17.572,43.035-34.446
						C205.762,140.825,202.678,127.778,190.825,122.442z"/>
				</g>
				<g>
					<ellipse style="fill:#EF3F1D;" cx="181.44" cy="148.796" rx="28.797" ry="28.035"/>
				</g>
				<g>
					<ellipse style="fill:#A31332;" cx="187.356" cy="151.041" rx="19.817" ry="17.513"/>
				</g>
				<g>
					<path style="fill:#A31332;" d="M167.185,120.391c0.529,7.289,22.885,10.482,32.865,9.79
						c-4.193-6.159-11.165-10.255-22.41-10.255C174.731,119.925,171.174,120.083,167.185,120.391z"/>
				</g>
				<g>
					<path style="fill:#EF3F1D;" d="M196.863,98.566L196.863,98.566c-5.125,9.443-3.523,23.635,3.578,31.698l0,0
						C205.566,120.821,203.964,106.63,196.863,98.566z"/>
				</g>
				<g>
					<path style="fill:#FF684A;" d="M184.391,102.609L184.391,102.609c-0.946,10.702,6.168,23.086,15.89,27.66h0
						C201.227,119.567,194.113,107.183,184.391,102.609z"/>
				</g>
				<g>
					<ellipse style="fill:#FFFDF8;" cx="188.604" cy="148.982" rx="19.04" ry="16.827"/>
				</g>
				<g>
					<path style="fill:#CCE2EA;" d="M201.524,148.253h-16.915c0.003,0.081-0.001,0.161,0.004,0.242
						c0.317,4.667,4.356,8.193,9.023,7.876C197.998,156.076,201.362,152.527,201.524,148.253z"/>
				</g>
				<g>
					<path style="fill:#252538;" d="M192.722,142.896c2.776-0.189,5.179,1.909,5.368,4.686c0.188,2.776-1.91,5.179-4.686,5.368
						c-2.776,0.188-5.18-1.909-5.368-4.686C187.847,145.488,189.945,143.085,192.722,142.896z"/>
				</g>
			</g>
		</g>
		<g>
			<g>
				<path style="fill:#A31332;" d="M167.032,163.354C111.874,92.97,96.399,50.541,96.399,50.541s-14.601,11.98-5.616,32.945
					c0,0-12.729,0.749-5.99,16.098c0,0-10.483,7.862-0.749,21.34c0,0-9.359,8.611,2.621,19.842c0,0-3.369,10.483,8.236,18.719
					C94.902,159.485,119.361,188.312,167.032,163.354z"/>
			</g>
			<g>
				<path style="fill:#FF684A;" d="M120.033,108.579c-2.781-2.278-5.504-4.566-8.338-6.678c-1.419-1.049-2.85-2.073-4.329-2.993
					c-1.471-0.917-2.989-1.785-4.542-2.33c-0.774-0.27-1.535-0.443-2.298-0.494c-0.38-0.036-0.71,0.01-0.992,0.064
					c-0.267,0.077-0.407,0.178-0.497,0.3c-0.094,0.122-0.163,0.341-0.189,0.644c-0.012,0.311,0.02,0.67,0.094,1.043
					c0.148,0.75,0.44,1.538,0.774,2.309c1.372,3.106,3.365,6.063,5.455,8.871l-1.191,1.182l-0.002-0.001
					c-2.189-1.743-4.653-3.353-7.238-4.276c-1.283-0.449-2.653-0.689-3.788-0.371c-0.564,0.156-1.047,0.46-1.438,0.894
					c-0.404,0.457-0.654,0.949-0.737,1.502c-0.167,1.111,0.356,2.393,1.088,3.527c0.739,1.146,1.675,2.213,2.681,3.21
					c2.018,1.989,4.318,3.783,6.678,5.36l5.047,3.373l-5.778-1.868c-2.26-0.731-4.679-1.291-7.015-1.391
					c-1.157-0.037-2.341,0.05-3.249,0.475c-0.453,0.209-0.802,0.502-1.026,0.874c-0.227,0.377-0.345,0.833-0.311,1.276
					c0.052,0.913,0.693,1.886,1.46,2.719c0.778,0.844,1.71,1.595,2.683,2.291c1.957,1.378,4.125,2.564,6.306,3.561l3.893,1.778
					l-4.285-0.166c-1.622-0.063-3.378,0.061-4.859,0.563c-0.735,0.253-1.398,0.631-1.77,1.13c-0.095,0.123-0.19,0.246-0.229,0.393
					l-0.091,0.206c-0.02,0.062-0.016,0.106-0.034,0.159c-0.024,0.194,0.048,0.425,0.222,0.69c0.368,0.53,1.025,1.033,1.716,1.454
					c0.701,0.425,1.458,0.798,2.238,1.135c1.555,0.672,3.21,1.231,4.841,1.682l3.296,0.912l-3.363,0.732
					c-1.88,0.409-3.899,1.416-4.722,3.009c-0.216,0.391-0.343,0.822-0.402,1.269c-0.059,0.217-0.026,0.455-0.034,0.684
					c-0.016,0.25,0.024,0.429,0.055,0.608c0.201,0.716,0.887,1.395,1.737,1.895c1.709,1.022,3.812,1.587,5.881,2.036
					c2.084,0.431,4.238,0.723,6.352,0.878l0.002,0l1.627,0.105l-1.014,1.254c-0.82,1.014-1.492,2.345-1.727,3.669
					c-0.247,1.337,0.054,2.731,0.869,3.873c0.203,0.284,0.458,0.533,0.686,0.807c0.252,0.252,0.544,0.467,0.816,0.706
					c0.545,0.468,1.207,0.778,1.889,1.049c1.378,0.521,2.865,0.787,4.352,0.944c-1.497-0.019-3.008-0.141-4.484-0.544
					c-0.728-0.212-1.477-0.48-2.12-0.932c-0.315-0.226-0.649-0.428-0.95-0.678c-0.281-0.275-0.589-0.528-0.85-0.829
					c-1.059-1.199-1.619-2.911-1.464-4.547c0.154-1.65,0.725-3.147,1.654-4.555l0.613,1.359l-0.002,0
					c-2.234-0.164-4.409-0.461-6.595-0.911c-2.172-0.481-4.361-1.033-6.415-2.248c-0.509-0.309-1.01-0.67-1.453-1.145
					c-0.441-0.466-0.842-1.05-1.031-1.75c-0.079-0.355-0.13-0.714-0.113-1.012c0.007-0.315-0.024-0.627,0.049-0.944
					c0.083-0.63,0.272-1.264,0.58-1.826c0.603-1.145,1.57-2.007,2.596-2.615c1.051-0.602,2.112-1.013,3.322-1.269l-0.067,1.644
					c-1.745-0.484-3.42-1.05-5.083-1.766c-0.829-0.358-1.648-0.759-2.446-1.243c-0.79-0.497-1.591-1.042-2.238-1.954
					c-0.309-0.457-0.572-1.096-0.5-1.784c0.027-0.161,0.051-0.338,0.097-0.483l0.162-0.4c0.096-0.276,0.257-0.509,0.43-0.734
					c0.696-0.906,1.655-1.384,2.558-1.704c1.85-0.61,3.657-0.718,5.525-0.653l-0.393,1.612c-2.319-1.06-4.513-2.261-6.606-3.73
					c-1.037-0.743-2.047-1.549-2.949-2.526c-0.87-0.974-1.766-2.147-1.9-3.746c-0.055-0.792,0.144-1.591,0.557-2.271
					c0.416-0.693,1.074-1.211,1.743-1.516c1.359-0.616,2.725-0.664,4.025-0.635c2.615,0.12,5.065,0.697,7.508,1.482l-0.732,1.504
					c-2.488-1.664-4.812-3.475-6.953-5.581c-1.062-1.056-2.07-2.191-2.914-3.498c-0.424-0.649-0.791-1.362-1.057-2.141
					c-0.262-0.775-0.412-1.651-0.276-2.547c0.125-0.894,0.581-1.748,1.15-2.375c0.582-0.656,1.384-1.159,2.229-1.388
					c1.713-0.458,3.352-0.092,4.799,0.399c1.461,0.511,2.809,1.208,4.091,1.986c1.286,0.785,2.493,1.628,3.68,2.592l0.002,0.002
					l-1.191,1.182c-1.219-1.348-2.332-2.785-3.38-4.279c-1.052-1.492-1.996-3.067-2.786-4.775c-0.38-0.863-0.73-1.753-0.94-2.754
					c-0.102-0.502-0.169-1.035-0.146-1.617c0.037-0.583,0.197-1.264,0.646-1.856c0.446-0.596,1.128-0.951,1.722-1.097
					c0.59-0.128,1.159-0.163,1.669-0.115c1.018,0.071,2.01,0.319,2.908,0.671c3.553,1.454,6.442,3.695,9.159,6.081
					C115.41,103.064,117.871,105.705,120.033,108.579z"/>
			</g>
			<g>
				<path style="fill:#682335;" d="M167.032,163.354c-9.831-12.544-18.395-24.195-25.841-34.881
					c-25.344-16.081-16.773,3.477-12.533,7.365c0,0-16.098,6.739,5.428,17.408c0,0-12.916,3.931-3.744,9.734
					c0,0-6.907,8.104,5.019,10.321C144.424,172.53,154.986,169.661,167.032,163.354z"/>
			</g>
		</g>
	</g>
	<g>
		<path style="fill:#682335;" d="M389.664,68.757c0,0-19.947,7.002-18.208,23.343c0,0-13.228,4.493-9.418,15.696
			c0,0-14.396,4.862-4.818,16.761c0,0-10.271,5.329-1.771,15.433c0,0-3.393,25.391,74.784,22.05
			C390.468,121.975,389.664,68.757,389.664,68.757z"/>
		<g>
			<g>
				<path style="fill:#F2AC30;" d="M372.349,190.746c-0.193,0-0.39-0.033-0.582-0.104c-14.485-5.329-23.324-13.16-21.495-19.042
					c1.654-5.319,11.126-6.191,25.988-2.391c0.902,0.23,1.446,1.148,1.215,2.049c-0.23,0.901-1.15,1.444-2.049,1.215
					c-16.045-4.101-21.364-1.711-21.936,0.128c-0.904,2.907,5.349,9.695,19.441,14.879c0.873,0.321,1.321,1.29,1,2.163
					C373.68,190.324,373.035,190.746,372.349,190.746z"/>
			</g>
			<g>
				<path style="fill:#BF6E1D;" d="M376.156,186.752c1.09-0.125,2.254-0.025,3.404,0.349c1.145,0.378,2.257,1.081,3.098,2.058
					c1.704,1.978,2.036,4.831,1.129,7.035c-0.856,2.251-2.846,3.88-4.924,4.387c-2.085,0.548-4.14,0.213-5.888-0.539
					c1.905-0.177,3.701-0.574,5.08-1.437c1.379-0.848,2.249-2.114,2.497-3.43c0.256-1.319-0.115-2.604-0.871-3.44
					c-0.756-0.855-1.978-1.357-3.523-1.614l-0.085-0.014c-0.923-0.153-1.547-1.026-1.394-1.949
					C374.803,187.395,375.424,186.836,376.156,186.752z"/>
			</g>
			<g>
				<path style="fill:#DD8924;" d="M372.349,186.565c1.09-0.125,2.254-0.025,3.404,0.349c1.145,0.378,2.257,1.081,3.098,2.058
					c1.704,1.978,2.036,4.831,1.129,7.035c-0.856,2.252-2.846,3.88-4.924,4.387c-2.085,0.548-4.14,0.213-5.888-0.539
					c1.905-0.177,3.701-0.574,5.08-1.437c1.379-0.848,2.249-2.114,2.497-3.43c0.256-1.319-0.115-2.604-0.871-3.44
					c-0.756-0.855-1.978-1.358-3.523-1.614l-0.085-0.014c-0.923-0.153-1.547-1.026-1.394-1.949
					C370.997,187.208,371.617,186.649,372.349,186.565z"/>
			</g>
			<g>
				<path style="fill:#F2AC30;" d="M369.916,186.565c1.09-0.125,2.254-0.025,3.404,0.349c1.145,0.378,2.257,1.081,3.098,2.058
					c1.704,1.978,2.036,4.831,1.129,7.035c-0.856,2.252-2.846,3.88-4.924,4.387c-2.085,0.548-4.14,0.213-5.888-0.539
					c1.905-0.177,3.701-0.574,5.08-1.437c1.379-0.848,2.249-2.114,2.497-3.43c0.256-1.319-0.115-2.604-0.871-3.44
					c-0.756-0.855-1.978-1.358-3.523-1.614l-0.085-0.014c-0.923-0.153-1.547-1.026-1.394-1.949
					C368.564,187.208,369.184,186.649,369.916,186.565z"/>
			</g>
		</g>
		<g>
			<path style="fill:#EF3F1D;" d="M346.393,139.393l-78.37-23.461c0,0,5.99,27.954,24.959,30.949c18.968,2.995,55.907,0,55.907,0
				L346.393,139.393z"/>
		</g>
		<g>
			<path style="fill:#FF684A;" d="M347.806,142.335l-69.693-10.26c0,0,8.575,23.076,25.111,23.272
				c16.535,0.197,47.639-6.942,47.639-6.942L347.806,142.335z"/>
		</g>
		<g>
			<g>
				<path style="fill:#D17D19;" d="M446.162,157.193c1.613,4.123,17.478-2.51,34.508-2.51h-32.984L446.162,157.193z"/>
			</g>
			<g>
				<path style="fill:#FFCD40;" d="M448.403,139.267c27.068,0,31.55,8.246,32.267,15.416h-31.908L448.403,139.267z"/>
			</g>
			<g>
				<path style="fill:#ED9B2F;" d="M451.186,139.3c-0.902-0.02-1.825-0.033-2.783-0.033l0.358,15.416h7.423
					c0.005-0.209,0.016-0.417,0.016-0.628C456.201,148.526,454.336,143.42,451.186,139.3z"/>
			</g>
			<g>
				<path style="fill:#252538;" d="M473.034,143.486c-2.771,2.2-4.554,5.592-4.554,9.405c0,0.611,0.06,1.206,0.148,1.793h12.042
					C480.278,150.764,478.751,146.526,473.034,143.486z"/>
			</g>
			<g>
				<path style="fill:#FFDC83;" d="M468.081,143.493c-0.105,0.802-2.598,1.137-5.567,0.748s-5.291-1.355-5.186-2.157
					c0.105-0.802,2.598-1.137,5.567-0.748C465.864,141.725,468.186,142.691,468.081,143.493z"/>
			</g>
		</g>
		<g>
			<g>
				<path style="fill:#F2AC30;" d="M356.126,192.992c-0.193,0-0.39-0.033-0.582-0.104c-14.485-5.329-23.324-13.16-21.495-19.042
					c1.654-5.319,11.127-6.192,25.988-2.391c0.902,0.23,1.446,1.148,1.215,2.049c-0.23,0.902-1.15,1.444-2.049,1.215
					c-16.046-4.102-21.364-1.71-21.936,0.128c-0.904,2.907,5.349,9.695,19.441,14.879c0.873,0.321,1.321,1.289,0.999,2.163
					C357.457,192.57,356.812,192.992,356.126,192.992z"/>
			</g>
			<g>
				<path style="fill:#BF6E1D;" d="M359.933,188.998c1.09-0.125,2.254-0.025,3.404,0.349c1.145,0.378,2.257,1.081,3.098,2.058
					c1.704,1.978,2.036,4.831,1.129,7.035c-0.856,2.252-2.846,3.88-4.924,4.387c-2.085,0.548-4.14,0.214-5.888-0.539
					c1.905-0.177,3.701-0.574,5.08-1.437c1.379-0.848,2.249-2.114,2.497-3.43c0.256-1.319-0.115-2.604-0.871-3.44
					c-0.756-0.855-1.978-1.357-3.523-1.614l-0.085-0.014c-0.923-0.153-1.547-1.026-1.394-1.949
					C358.58,189.641,359.201,189.083,359.933,188.998z"/>
			</g>
			<g>
				<path style="fill:#DD8924;" d="M356.126,188.811c1.09-0.125,2.254-0.025,3.404,0.349c1.145,0.378,2.257,1.081,3.098,2.058
					c1.704,1.978,2.036,4.83,1.129,7.035c-0.856,2.251-2.846,3.88-4.924,4.387c-2.085,0.548-4.14,0.214-5.888-0.539
					c1.905-0.177,3.701-0.574,5.08-1.437c1.379-0.848,2.249-2.114,2.497-3.43c0.256-1.319-0.115-2.604-0.871-3.44
					c-0.756-0.855-1.978-1.357-3.523-1.614l-0.085-0.014c-0.923-0.153-1.547-1.026-1.394-1.949
					C354.774,189.454,355.394,188.895,356.126,188.811z"/>
			</g>
			<g>
				<path style="fill:#F2AC30;" d="M353.693,188.811c1.09-0.125,2.254-0.025,3.404,0.349c1.145,0.378,2.257,1.081,3.098,2.058
					c1.704,1.978,2.036,4.83,1.129,7.035c-0.856,2.251-2.846,3.88-4.924,4.387c-2.085,0.548-4.14,0.214-5.888-0.539
					c1.905-0.177,3.701-0.574,5.08-1.437c1.379-0.848,2.249-2.114,2.497-3.43c0.256-1.319-0.115-2.604-0.871-3.44
					c-0.756-0.855-1.978-1.357-3.523-1.614l-0.085-0.014c-0.923-0.153-1.547-1.026-1.394-1.949
					C352.341,189.454,352.961,188.895,353.693,188.811z"/>
			</g>
		</g>
		<g>
			<g>
				<g>
					<path style="fill:#EF3F1D;" d="M447.519,153.804c0,16.874-20.198,34.446-43.035,34.446c-51.477,0-69.697-30.886-70.258-41.743
						c-0.872-16.851,62.245-26.581,85.171-26.581C442.323,119.925,447.519,136.93,447.519,153.804z"/>
				</g>
				<g>
					<path style="fill:#FFFDF8;" d="M432.582,122.442c2.199,5.517,2.957,11.958,2.957,18.384c0,16.874-20.198,34.446-43.035,34.446
						c-25.059,0-42.235-7.32-53.331-16.085c8.392,13.025,28.216,29.063,65.311,29.063c22.837,0,43.035-17.572,43.035-34.446
						C447.519,140.825,444.435,127.778,432.582,122.442z"/>
				</g>
				<g>
					<ellipse style="fill:#EF3F1D;" cx="423.196" cy="148.796" rx="28.797" ry="28.035"/>
				</g>
				<g>
					<ellipse style="fill:#A31332;" cx="429.113" cy="151.041" rx="19.817" ry="17.513"/>
				</g>
				<g>
					<path style="fill:#A31332;" d="M408.941,120.391c0.528,7.289,22.885,10.482,32.865,9.79
						c-4.193-6.159-11.165-10.255-22.41-10.255C416.488,119.925,412.931,120.083,408.941,120.391z"/>
				</g>
				<g>
					<ellipse style="fill:#FFFDF8;" cx="430.361" cy="148.982" rx="19.04" ry="16.827"/>
				</g>
				<g>
					<path style="fill:#CCE2EA;" d="M443.281,148.253h-16.915c0.003,0.081-0.001,0.161,0.004,0.242
						c0.316,4.667,4.356,8.193,9.023,7.876C439.755,156.076,443.119,152.527,443.281,148.253z"/>
				</g>
				<g>
					<path style="fill:#252538;" d="M434.478,142.896c2.776-0.189,5.18,1.909,5.368,4.686c0.188,2.776-1.91,5.179-4.686,5.368
						c-2.776,0.188-5.18-1.909-5.368-4.686C429.604,145.488,431.702,143.085,434.478,142.896z"/>
				</g>
			</g>
			<g>
				<path style="fill:#EF3F1D;" d="M435.004,98.989L435.004,98.989c-4.086,9.937-0.976,23.876,6.946,31.134l0,0
					C446.036,120.187,442.926,106.247,435.004,98.989z"/>
			</g>
			<g>
				<path style="fill:#FF684A;" d="M423.036,104.342L423.036,104.342c0.203,10.742,8.6,22.295,18.756,25.803l0,0
					C441.588,119.403,433.191,107.851,423.036,104.342z"/>
			</g>
		</g>
		<g>
			<path style="fill:#A31332;" d="M407.997,162.996c-55.46-22.367-90.922-76.512-90.922-76.512s-10.063,16.545,1.922,32.469
				c0,0-6.772,10.817,3.367,20.505c0,0-7.388,11.744,7.443,19.435c0,0-4.052,10.285,8.812,16.644
				C338.619,175.537,352.765,203.145,407.997,162.996z"/>
			<path style="fill:#FF684A;" d="M342.802,129.677c-2.681-0.756-5.352-1.548-8.052-1.984c-1.337-0.232-2.709-0.391-3.967-0.267
				c-0.613,0.072-1.214,0.234-1.54,0.513c-0.301,0.267-0.381,0.595-0.276,1.129c0.238,1.052,1.07,2.173,1.936,3.13
				c0.898,0.966,1.905,1.856,2.957,2.69c2.129,1.643,4.486,3.002,6.954,4.073l3.258,1.415l-3.495,0.148l-0.005,0
				c-1.591,0.133-3.223,0.365-4.767,0.733c-0.771,0.188-1.531,0.415-2.204,0.722c-0.676,0.28-1.245,0.779-1.223,1.028
				c-0.103,0.238,0.39,0.876,0.943,1.319c0.575,0.471,1.253,0.888,1.949,1.273c1.4,0.77,2.901,1.417,4.411,2.035l1.495,0.612
				l-1.396,0.845c-1.154,0.698-2.331,1.6-3.112,2.633c-0.816,1.065-1.001,2.145-0.169,3.015c0.791,0.904,2.142,1.506,3.447,1.992
				c1.336,0.479,2.744,0.826,4.162,1.13l2.404,0.515l-2.25,1.024c-1.305,0.594-2.705,1.401-3.523,2.391
				c-0.204,0.244-0.319,0.496-0.371,0.707c-0.053,0.213-0.025,0.378,0.091,0.585c0.21,0.417,0.794,0.848,1.422,1.163
				c1.268,0.662,2.768,1.071,4.247,1.432c1.492,0.355,3.023,0.605,4.552,0.846l1.398,0.221l-0.902,1.109
				c-0.715,0.879-1.369,1.975-1.614,3.009c-0.122,0.52-0.105,1.006,0.045,1.4c0.163,0.387,0.491,0.712,0.943,0.965
				c0.909,0.514,2.152,0.686,3.352,0.767c1.219,0.07,2.468,0.015,3.715-0.081l1.744-0.134l-1.028,1.427l0,0.001
				c-0.692,0.942-1.301,2.35-0.92,3.013c0.173,0.331,0.654,0.627,1.261,0.76c0.594,0.156,1.265,0.176,1.932,0.192
				c1.347,0.011,2.722-0.171,4.093-0.369c1.373-0.206,2.742-0.484,4.117-0.755c-2.611,1.015-5.281,1.908-8.159,2.237
				c-0.724,0.069-1.461,0.095-2.238-0.03c-0.745-0.118-1.671-0.4-2.257-1.276c-0.553-0.907-0.407-1.9-0.188-2.651
				c0.256-0.778,0.601-1.426,1.064-2.092l0.001-0.001l0.716,1.293c-1.302,0.1-2.614,0.159-3.949,0.084
				c-1.329-0.104-2.708-0.239-4.053-0.974c-0.658-0.363-1.316-0.959-1.645-1.763c-0.316-0.803-0.293-1.653-0.125-2.372
				c0.369-1.458,1.083-2.603,1.966-3.706l0.495,1.329c-1.564-0.247-3.129-0.502-4.686-0.872c-1.555-0.385-3.114-0.791-4.632-1.576
				c-0.741-0.402-1.549-0.864-2.099-1.839c-0.275-0.469-0.385-1.134-0.243-1.682c0.127-0.549,0.389-1.008,0.682-1.368
				c0.59-0.731,1.276-1.241,1.973-1.7c0.708-0.453,1.409-0.834,2.191-1.18l0.153,1.539c-1.471-0.315-2.939-0.675-4.387-1.193
				c-0.722-0.265-1.443-0.552-2.141-0.945c-0.697-0.381-1.392-0.834-1.979-1.51c-0.294-0.332-0.543-0.734-0.729-1.179
				c-0.152-0.459-0.253-0.96-0.196-1.441c0.076-0.978,0.534-1.77,1.023-2.429c1.021-1.32,2.249-2.238,3.609-3.07l0.098,1.457
				c-1.551-0.635-3.094-1.298-4.595-2.123c-0.749-0.416-1.49-0.865-2.197-1.442c-0.349-0.301-0.698-0.615-1.004-1.044
				c-0.162-0.186-0.281-0.483-0.404-0.733c-0.082-0.312-0.167-0.622-0.11-0.979c0.084-0.694,0.515-1.238,0.911-1.553
				c0.406-0.332,0.825-0.567,1.241-0.756c0.833-0.379,1.668-0.621,2.503-0.826c1.675-0.396,3.329-0.631,5.033-0.774l0.006-0.001
				l-0.237,1.563c-2.695-0.98-5.215-2.395-7.475-4.16c-1.135-0.878-2.202-1.854-3.15-2.964c-0.469-0.562-0.924-1.141-1.312-1.792
				c-0.398-0.635-0.737-1.353-0.898-2.2c-0.042-0.21-0.072-0.427-0.053-0.671c-0.005-0.232,0.022-0.47,0.11-0.719
				c0.117-0.49,0.474-0.94,0.857-1.222c0.795-0.561,1.621-0.652,2.378-0.711c1.522-0.056,2.924,0.253,4.294,0.608
				C337.711,127.38,340.298,128.447,342.802,129.677z"/>
			<path style="fill:#682335;" d="M373.93,144.155c-11.977-1.39-2.24,9.053,5.644,11.418c0,0-13.347,3.765-1.483,7.415
				c0,0-5.476,6.617,3.536,5.932c0,0-4.905,7.626,1.683,9.117c7.135-3.377,15.318-8.232,24.686-15.042
				C395.579,157.988,384.168,151.385,373.93,144.155z"/>
		</g>
	</g>
	<g>
		<g>
			<g>
				<path style="fill:#682335;" d="M118.59,357.782c81.121,37.625,114.189,68.387,114.189,68.387s7.561-17.307-9.971-31.898
					c0,0,10.998-6.452-1.981-17.062c0,0,5.764-11.767-9.032-19.349c0,0,4.424-11.924-11.352-16.483c0,0-1.763-10.869-15.844-12.931
					C184.598,328.446,149.709,313.884,118.59,357.782z"/>
			</g>
			<g>
				<path style="fill:#FF684A;" d="M185.349,385.212c3.512,0.766,6.977,1.566,10.462,2.159c1.741,0.289,3.481,0.551,5.216,0.698
					c1.727,0.149,3.474,0.232,5.105,0.011c0.812-0.111,1.568-0.303,2.271-0.605c0.355-0.14,0.628-0.332,0.854-0.508
					c0.203-0.19,0.281-0.344,0.307-0.493c0.028-0.151-0.01-0.378-0.124-0.659c-0.13-0.283-0.322-0.588-0.558-0.887
					c-0.472-0.601-1.091-1.17-1.738-1.705c-2.634-2.143-5.753-3.872-8.891-5.422l0.524-1.594l0.002,0.001
					c2.742,0.558,5.668,0.873,8.391,0.52c1.347-0.183,2.676-0.592,3.543-1.391c0.432-0.395,0.724-0.886,0.875-1.45
					c0.152-0.591,0.151-1.143-0.026-1.673c-0.356-1.065-1.405-1.97-2.572-2.647c-1.179-0.685-2.497-1.21-3.847-1.641
					c-2.701-0.855-5.566-1.407-8.385-1.739l-6.028-0.71l5.996-0.962c2.345-0.376,4.754-0.976,6.88-1.949
					c1.047-0.493,2.062-1.109,2.678-1.9c0.309-0.392,0.486-0.812,0.516-1.245c0.03-0.439-0.071-0.899-0.303-1.278
					c-0.462-0.79-1.474-1.365-2.536-1.758c-1.076-0.399-2.248-0.644-3.431-0.821c-2.37-0.338-4.84-0.409-7.235-0.305l-4.275,0.185
					l3.893-1.8c1.474-0.681,2.981-1.59,4.072-2.71c0.54-0.56,0.959-1.197,1.063-1.811c0.029-0.153,0.058-0.305,0.026-0.454
					l-0.012-0.225c-0.011-0.064-0.034-0.102-0.042-0.157c-0.067-0.184-0.236-0.357-0.512-0.514
					c-0.568-0.304-1.382-0.454-2.189-0.515c-0.817-0.06-1.662-0.048-2.509,0.006c-1.691,0.109-3.418,0.362-5.077,0.702l-3.35,0.686
					l2.663-2.18c1.488-1.219,2.829-3.033,2.839-4.827c0.015-0.446-0.068-0.888-0.219-1.313c-0.046-0.22-0.184-0.417-0.281-0.624
					c-0.1-0.23-0.216-0.371-0.326-0.517c-0.505-0.547-1.424-0.84-2.408-0.898c-1.987-0.134-4.117,0.319-6.163,0.859
					c-2.052,0.563-4.104,1.283-6.057,2.105l-0.002,0.001l-1.497,0.646l0.333-1.578c0.27-1.276,0.263-2.767-0.129-4.053
					c-0.387-1.303-1.289-2.409-2.535-3.055c-0.31-0.161-0.651-0.267-0.978-0.407c-0.339-0.11-0.697-0.169-1.048-0.258
					c-0.698-0.17-1.428-0.145-2.16-0.076c-1.464,0.162-2.909,0.601-4.306,1.137c1.343-0.664,2.744-1.242,4.242-1.553
					c0.745-0.142,1.534-0.244,2.311-0.133c0.383,0.058,0.773,0.087,1.155,0.172c0.375,0.117,0.764,0.203,1.134,0.352
					c1.488,0.586,2.765,1.858,3.37,3.385c0.612,1.54,0.785,3.132,0.597,4.81l-1.164-0.932l0.002-0.001
					c2.064-0.869,4.137-1.594,6.288-2.186c2.153-0.558,4.355-1.062,6.736-0.913c0.594,0.043,1.204,0.138,1.815,0.359
					c0.605,0.214,1.227,0.552,1.713,1.09c0.232,0.28,0.44,0.577,0.56,0.85c0.137,0.283,0.306,0.548,0.386,0.863
					c0.213,0.599,0.332,1.25,0.313,1.89c-0.017,1.294-0.486,2.501-1.124,3.509c-0.662,1.014-1.421,1.863-2.383,2.64l-0.688-1.495
					c1.775-0.363,3.523-0.619,5.331-0.737c0.901-0.058,1.813-0.073,2.744-0.005c0.93,0.083,1.891,0.205,2.882,0.723
					c0.483,0.267,1.008,0.716,1.256,1.362c0.049,0.156,0.108,0.324,0.134,0.475l0.037,0.43c0.04,0.29,0.003,0.57-0.049,0.85
					c-0.208,1.123-0.845,1.985-1.505,2.68c-1.371,1.384-2.931,2.302-4.625,3.093l-0.383-1.615c2.547-0.109,5.047-0.037,7.58,0.32
					c1.262,0.191,2.527,0.449,3.775,0.909c1.217,0.472,2.549,1.109,3.395,2.473c0.409,0.68,0.595,1.482,0.536,2.276
					c-0.055,0.806-0.406,1.566-0.864,2.143c-0.931,1.166-2.126,1.83-3.297,2.395c-2.383,1.082-4.828,1.682-7.362,2.092l-0.032-1.672
					c2.972,0.351,5.866,0.908,8.73,1.811c1.426,0.457,2.84,1.011,4.185,1.792c0.673,0.385,1.323,0.854,1.914,1.426
					c0.585,0.572,1.118,1.283,1.404,2.143c0.295,0.853,0.277,1.821,0.055,2.639c-0.22,0.848-0.706,1.661-1.355,2.249
					c-1.318,1.187-2.944,1.605-4.456,1.826c-1.533,0.209-3.051,0.201-4.547,0.091c-1.502-0.115-2.961-0.317-4.456-0.637l-0.003,0
					l0.524-1.594c1.698,0.647,3.343,1.421,4.955,2.275c1.616,0.851,3.172,1.825,4.652,2.987c0.731,0.596,1.447,1.23,2.089,2.026
					c0.319,0.4,0.62,0.845,0.865,1.374c0.232,0.536,0.4,1.215,0.268,1.947c-0.126,0.733-0.572,1.36-1.035,1.76
					c-0.468,0.382-0.958,0.672-1.434,0.861c-0.939,0.399-1.935,0.629-2.895,0.724c-3.826,0.32-7.417-0.364-10.922-1.255
					C191.973,388.023,188.581,386.79,185.349,385.212z"/>
			</g>
			<g>
				<path style="fill:#682335;" d="M118.59,357.782c14.458,6.706,27.381,13.192,38.871,19.326
					c29.884,2.806,13.36-10.72,7.816-12.256c0,0,11.277-13.319-12.747-13.04c0,0,9.719-9.372-1.089-10.372
					c0,0,2.469-10.357-9.161-6.913C134.558,339.333,126.454,346.689,118.59,357.782z"/>
			</g>
		</g>
		<g>
			<g>
				<path style="fill:#F2AC30;" d="M130.593,389.931c-0.193,0-0.39-0.033-0.582-0.104c-14.485-5.329-23.324-13.16-21.495-19.042
					c1.654-5.319,11.126-6.191,25.988-2.391c0.902,0.23,1.446,1.148,1.215,2.05c-0.23,0.901-1.15,1.444-2.049,1.215
					c-16.045-4.101-21.364-1.711-21.936,0.128c-0.904,2.907,5.35,9.695,19.441,14.879c0.873,0.321,1.321,1.289,0.999,2.163
					C131.923,389.509,131.278,389.931,130.593,389.931z"/>
			</g>
			<g>
				<path style="fill:#BF6E1D;" d="M134.399,385.937c1.09-0.125,2.254-0.025,3.404,0.349c1.145,0.378,2.257,1.081,3.098,2.058
					c1.704,1.978,2.036,4.831,1.129,7.035c-0.856,2.251-2.847,3.88-4.924,4.387c-2.085,0.548-4.14,0.213-5.888-0.539
					c1.904-0.177,3.701-0.574,5.08-1.437c1.379-0.849,2.249-2.114,2.497-3.43c0.256-1.319-0.115-2.604-0.871-3.44
					c-0.756-0.855-1.978-1.357-3.523-1.614l-0.085-0.014c-0.923-0.153-1.547-1.026-1.394-1.949
					C133.047,386.579,133.667,386.021,134.399,385.937z"/>
			</g>
			<g>
				<path style="fill:#DD8924;" d="M130.593,385.75c1.09-0.125,2.254-0.025,3.404,0.349c1.145,0.378,2.257,1.081,3.098,2.058
					c1.704,1.978,2.036,4.831,1.129,7.035c-0.856,2.252-2.847,3.88-4.924,4.387c-2.085,0.548-4.14,0.213-5.888-0.539
					c1.905-0.177,3.701-0.574,5.08-1.437c1.379-0.849,2.249-2.114,2.497-3.43c0.256-1.319-0.115-2.604-0.871-3.44
					c-0.756-0.855-1.978-1.357-3.523-1.614l-0.085-0.014c-0.923-0.153-1.547-1.026-1.394-1.949
					C129.24,386.392,129.861,385.834,130.593,385.75z"/>
			</g>
			<g>
				<path style="fill:#F2AC30;" d="M128.159,385.75c1.09-0.125,2.254-0.025,3.404,0.349c1.145,0.378,2.257,1.081,3.098,2.058
					c1.704,1.978,2.036,4.831,1.129,7.035c-0.856,2.252-2.847,3.88-4.924,4.387c-2.085,0.548-4.14,0.213-5.888-0.539
					c1.905-0.177,3.701-0.574,5.08-1.437c1.379-0.849,2.249-2.114,2.497-3.43c0.256-1.319-0.115-2.604-0.871-3.44
					c-0.756-0.855-1.978-1.357-3.523-1.614l-0.085-0.014c-0.923-0.153-1.547-1.026-1.394-1.949
					C126.807,386.392,127.427,385.834,128.159,385.75z"/>
			</g>
		</g>
		<g>
			<path style="fill:#EF3F1D;" d="M104.62,341.312l-61.838-53.557c0,0-6.01,27.949,10.059,38.465
				c16.068,10.516,50.982,22.944,50.982,22.944L104.62,341.312z"/>
		</g>
		<g>
			<path style="fill:#FF684A;" d="M104.702,344.575l-59.343-37.958c0,0-1.65,24.562,13.348,31.528
				c14.998,6.965,46.292,13.22,46.292,13.22L104.702,344.575z"/>
		</g>
		<g>
			<g>
				<path style="fill:#D17D19;" d="M204.406,356.378c1.613,4.123,17.478-2.51,34.507-2.51h-32.984L204.406,356.378z"/>
			</g>
			<g>
				<path style="fill:#FFCD40;" d="M206.646,338.452c27.068,0,31.55,8.246,32.267,15.416h-31.908L206.646,338.452z"/>
			</g>
			<g>
				<path style="fill:#ED9B2F;" d="M209.429,338.485c-0.902-0.02-1.825-0.033-2.783-0.033l0.359,15.416h7.423
					c0.005-0.209,0.016-0.417,0.016-0.627C214.444,347.71,212.579,342.605,209.429,338.485z"/>
			</g>
			<g>
				<path style="fill:#252538;" d="M231.277,342.671c-2.771,2.2-4.554,5.592-4.554,9.405c0,0.611,0.06,1.206,0.148,1.793h12.041
					C238.521,349.948,236.994,345.71,231.277,342.671z"/>
			</g>
			<g>
				<path style="fill:#FFDC83;" d="M226.324,342.678c-0.105,0.802-2.598,1.137-5.567,0.748c-2.969-0.389-5.291-1.355-5.186-2.157
					c0.105-0.802,2.598-1.137,5.567-0.748C224.107,340.91,226.429,341.876,226.324,342.678z"/>
			</g>
		</g>
		<g>
			<g>
				<path style="fill:#F2AC30;" d="M114.37,392.177c-0.193,0-0.39-0.033-0.582-0.104c-14.485-5.329-23.324-13.16-21.495-19.042
					c1.654-5.319,11.127-6.192,25.988-2.391c0.902,0.23,1.446,1.148,1.215,2.049c-0.23,0.902-1.15,1.444-2.049,1.215
					c-16.046-4.101-21.364-1.71-21.936,0.128c-0.904,2.907,5.35,9.695,19.441,14.879c0.873,0.321,1.321,1.289,0.999,2.163
					C115.7,391.755,115.055,392.177,114.37,392.177z"/>
			</g>
			<g>
				<path style="fill:#BF6E1D;" d="M118.176,388.183c1.09-0.125,2.254-0.025,3.404,0.349c1.145,0.378,2.257,1.081,3.098,2.058
					c1.704,1.978,2.036,4.831,1.129,7.035c-0.856,2.251-2.846,3.88-4.924,4.387c-2.085,0.548-4.14,0.213-5.888-0.539
					c1.905-0.177,3.701-0.574,5.08-1.436c1.379-0.849,2.249-2.114,2.497-3.431c0.256-1.319-0.115-2.604-0.871-3.44
					c-0.756-0.855-1.978-1.357-3.523-1.614l-0.085-0.014c-0.923-0.153-1.547-1.026-1.394-1.949
					C116.824,388.826,117.444,388.267,118.176,388.183z"/>
			</g>
			<g>
				<path style="fill:#DD8924;" d="M114.37,387.996c1.09-0.125,2.254-0.025,3.404,0.349c1.145,0.378,2.257,1.081,3.098,2.058
					c1.704,1.978,2.036,4.83,1.129,7.035c-0.856,2.251-2.847,3.88-4.924,4.387c-2.085,0.548-4.14,0.213-5.888-0.539
					c1.905-0.177,3.701-0.574,5.08-1.436c1.379-0.849,2.249-2.114,2.497-3.431c0.256-1.319-0.115-2.604-0.871-3.44
					c-0.756-0.855-1.978-1.358-3.523-1.614l-0.085-0.014c-0.923-0.153-1.547-1.026-1.394-1.949
					C113.017,388.639,113.638,388.08,114.37,387.996z"/>
			</g>
			<g>
				<path style="fill:#F2AC30;" d="M111.936,387.996c1.09-0.125,2.254-0.025,3.404,0.349c1.145,0.378,2.257,1.081,3.097,2.058
					c1.704,1.978,2.036,4.83,1.129,7.035c-0.856,2.251-2.846,3.88-4.924,4.387c-2.085,0.548-4.14,0.213-5.888-0.539
					c1.905-0.177,3.701-0.574,5.08-1.436c1.379-0.849,2.249-2.114,2.497-3.431c0.256-1.319-0.115-2.604-0.871-3.44
					c-0.756-0.855-1.978-1.358-3.523-1.614l-0.085-0.014c-0.923-0.153-1.547-1.026-1.394-1.949
					C110.584,388.639,111.204,388.08,111.936,387.996z"/>
			</g>
		</g>
		<g>
			<g>
				<g>
					<path style="fill:#EF3F1D;" d="M205.762,352.988c0,16.874-20.198,34.446-43.035,34.446c-51.477,0-69.697-30.886-70.258-41.743
						c-0.872-16.851,62.245-26.581,85.171-26.581C200.566,319.11,205.762,336.115,205.762,352.988z"/>
				</g>
				<g>
					<path style="fill:#FFFDF8;" d="M190.825,321.626c2.199,5.517,2.957,11.958,2.957,18.383c0,16.874-20.198,34.446-43.035,34.446
						c-25.059,0-42.235-7.32-53.331-16.085c8.392,13.025,28.216,29.063,65.311,29.063c22.837,0,43.035-17.572,43.035-34.446
						C205.762,340.009,202.678,326.962,190.825,321.626z"/>
				</g>
				<g>
					<ellipse style="fill:#EF3F1D;" cx="181.44" cy="347.981" rx="28.797" ry="28.035"/>
				</g>
				<g>
					<ellipse style="fill:#A31332;" cx="187.356" cy="350.226" rx="19.817" ry="17.513"/>
				</g>
				<g>
					<path style="fill:#A31332;" d="M167.185,319.575c0.529,7.289,22.885,10.482,32.865,9.79
						c-4.193-6.159-11.165-10.255-22.41-10.255C174.731,319.11,171.174,319.267,167.185,319.575z"/>
				</g>
				<g>
					<ellipse style="fill:#FFFDF8;" cx="188.604" cy="348.167" rx="19.04" ry="16.827"/>
				</g>
				<g>
					<path style="fill:#CCE2EA;" d="M201.524,347.438h-16.915c0.003,0.081-0.001,0.161,0.004,0.242
						c0.317,4.667,4.356,8.193,9.023,7.876C197.998,355.261,201.362,351.712,201.524,347.438z"/>
				</g>
				<g>
					<path style="fill:#252538;" d="M192.722,342.081c2.776-0.189,5.179,1.909,5.368,4.686c0.188,2.776-1.91,5.179-4.686,5.368
						c-2.776,0.188-5.18-1.909-5.368-4.686C187.847,344.672,189.945,342.269,192.722,342.081z"/>
				</g>
			</g>
			<g>
				<path style="fill:#EF3F1D;" d="M178.394,308.001L178.394,308.001c2.543,10.439,13.258,19.881,23.934,21.089l0,0
					C199.786,318.651,189.07,309.209,178.394,308.001z"/>
			</g>
			<g>
				<path style="fill:#FF684A;" d="M171.866,319.371L171.866,319.371c6.484,8.567,20.071,12.968,30.347,9.83v0
					C195.728,320.635,182.142,316.234,171.866,319.371z"/>
			</g>
		</g>
		<g>
			<g>
				<path style="fill:#A31332;" d="M166.75,362.461c-67.051,59.164-89.992,98.067-89.992,98.067s-12.176-14.438,0.477-33.417
					c0,0-12.38-3.054-2.959-16.92c0,0-8.876-9.639,3.149-21.119c0,0-7.635-10.171,6.189-19.033c0,0-1.405-10.921,11.507-16.906
					C95.121,353.132,124.42,329.24,166.75,362.461z"/>
			</g>
			<g>
				<path style="fill:#FF684A;" d="M110.563,407.763c-3.149,1.734-6.243,3.488-9.414,5.048c-1.587,0.773-3.18,1.52-4.801,2.155
					c-1.613,0.634-3.264,1.211-4.891,1.464c-0.81,0.125-1.59,0.156-2.349,0.067c-0.38-0.033-0.696-0.139-0.963-0.244
					c-0.249-0.125-0.368-0.249-0.435-0.385c-0.07-0.137-0.098-0.365-0.069-0.667c0.045-0.308,0.141-0.655,0.282-1.009
					c0.282-0.711,0.713-1.433,1.181-2.129c1.915-2.805,4.412-5.35,6.979-7.729l-0.956-1.379l-0.002,0.001
					c-2.47,1.315-5.185,2.45-7.896,2.887c-1.343,0.208-2.734,0.194-3.792-0.325c-0.527-0.256-0.946-0.643-1.252-1.141
					c-0.314-0.523-0.47-1.052-0.451-1.612c0.038-1.123,0.786-2.288,1.712-3.27c0.935-0.993,2.05-1.871,3.221-2.668
					c2.346-1.589,4.935-2.933,7.543-4.055l5.576-2.397l-6.022,0.785c-2.355,0.307-4.836,0.418-7.151,0.09
					c-1.144-0.174-2.292-0.476-3.108-1.059c-0.407-0.288-0.697-0.64-0.849-1.046c-0.154-0.412-0.187-0.882-0.074-1.311
					c0.218-0.888,1.025-1.728,1.931-2.408c0.918-0.689,1.972-1.257,3.056-1.764c2.175-0.999,4.523-1.77,6.849-2.353l4.151-1.04
					l-4.244-0.617c-1.607-0.234-3.31-0.675-4.675-1.438c-0.677-0.383-1.26-0.875-1.535-1.433c-0.072-0.138-0.142-0.276-0.154-0.428
					l-0.052-0.219c-0.008-0.065,0.004-0.108-0.004-0.163c0.011-0.195,0.125-0.409,0.344-0.638c0.458-0.454,1.196-0.829,1.952-1.117
					c0.766-0.29,1.579-0.52,2.407-0.708c1.652-0.377,3.38-0.626,5.066-0.773l3.407-0.297l-3.173-1.332
					c-1.774-0.745-3.576-2.102-4.095-3.819c-0.142-0.424-0.188-0.87-0.164-1.321c-0.019-0.224,0.057-0.452,0.091-0.678
					c0.03-0.249,0.102-0.417,0.165-0.588c0.328-0.668,1.126-1.211,2.053-1.547c1.866-0.694,4.037-0.866,6.153-0.931
					c2.128-0.044,4.299,0.061,6.406,0.293l0.002,0l1.619,0.193l-0.769-1.418c-0.622-1.146-1.04-2.578-1.03-3.922
					c0-1.36,0.55-2.676,1.56-3.65c0.251-0.242,0.548-0.441,0.822-0.668c0.293-0.202,0.62-0.36,0.931-0.545
					c0.621-0.361,1.328-0.545,2.049-0.688c1.45-0.261,2.96-0.252,4.452-0.136c-1.476-0.254-2.984-0.409-4.508-0.281
					c-0.755,0.076-1.539,0.203-2.254,0.53c-0.35,0.165-0.716,0.303-1.058,0.494c-0.326,0.219-0.675,0.412-0.987,0.66
					c-1.26,0.986-2.122,2.568-2.267,4.204c-0.149,1.65,0.14,3.226,0.797,4.781l0.85-1.225l-0.002,0
					c-2.226-0.245-4.42-0.35-6.651-0.305c-2.223,0.078-4.477,0.222-6.717,1.043c-0.557,0.211-1.115,0.475-1.638,0.861
					c-0.519,0.378-1.019,0.879-1.332,1.533c-0.143,0.334-0.257,0.679-0.295,0.974c-0.051,0.311-0.138,0.612-0.124,0.937
					c-0.034,0.635,0.038,1.292,0.238,1.901c0.385,1.235,1.178,2.259,2.076,3.044c0.924,0.784,1.892,1.381,3.036,1.852l0.234-1.629
					c-1.804,0.158-3.554,0.41-5.32,0.811c-0.88,0.201-1.758,0.446-2.631,0.777c-0.867,0.344-1.754,0.735-2.556,1.514
					c-0.387,0.393-0.762,0.974-0.816,1.663c-0.003,0.163-0.011,0.342,0.007,0.493l0.087,0.423c0.044,0.289,0.16,0.547,0.289,0.801
					c0.519,1.017,1.375,1.662,2.206,2.141c1.708,0.936,3.465,1.372,5.314,1.648l-0.093-1.657c-2.473,0.62-4.849,1.401-7.175,2.465
					c-1.155,0.542-2.295,1.15-3.36,1.947c-1.032,0.799-2.128,1.789-2.55,3.337c-0.198,0.769-0.149,1.59,0.134,2.334
					c0.283,0.757,0.835,1.386,1.438,1.808c1.224,0.853,2.559,1.149,3.842,1.357c2.593,0.358,5.107,0.237,7.653-0.091l-0.446-1.612
					c-2.749,1.183-5.365,2.541-7.853,4.222c-1.237,0.844-2.434,1.778-3.502,2.909c-0.535,0.561-1.025,1.195-1.429,1.912
					c-0.398,0.715-0.706,1.548-0.735,2.454c-0.039,0.902,0.253,1.824,0.699,2.545c0.453,0.75,1.15,1.391,1.939,1.77
					c1.601,0.763,3.279,0.701,4.791,0.482c1.529-0.237,2.982-0.676,4.384-1.208c1.407-0.538,2.748-1.147,4.09-1.879l0.003-0.001
					l-0.956-1.379c-1.444,1.104-2.8,2.314-4.102,3.592c-1.307,1.276-2.522,2.652-3.609,4.188c-0.531,0.78-1.037,1.591-1.425,2.537
					c-0.192,0.474-0.354,0.987-0.438,1.563c-0.07,0.58-0.037,1.279,0.297,1.942c0.33,0.667,0.936,1.141,1.493,1.392
					c0.557,0.233,1.11,0.371,1.62,0.417c1.014,0.115,2.034,0.052,2.982-0.13c3.758-0.783,7.007-2.46,10.113-4.312
					C105.013,412.343,107.914,410.195,110.563,407.763z"/>
			</g>
			<g>
				<path style="fill:#682335;" d="M166.75,362.461c-11.95,10.545-22.492,20.441-31.76,29.593
					c-27.848,11.198-15.86-6.473-10.982-9.523c0,0-14.602-9.557,8.507-16.129c0,0-11.985-6.217-1.909-10.253
					c0,0-5.316-9.226,6.814-9.235C146.189,349.322,156.053,354.066,166.75,362.461z"/>
			</g>
		</g>
	</g>
	<g>
		<path style="fill:#682335;" d="M368.943,349.861c0,0,53.026,10.108,105.656,38.704c0,0,4.107-8.974-10.039-17.949
			c0,0,4.563-7.91-4.563-14.298c0,0,3.955-10.039-10.039-16.123c0,0,1.217-8.518-13.081-10.343
			C436.875,329.851,414.363,301.255,368.943,349.861z"/>
		<g>
			<g>
				<path style="fill:#F2AC30;" d="M372.332,389.932c-0.193,0-0.39-0.033-0.582-0.104c-14.485-5.329-23.324-13.16-21.495-19.042
					c1.653-5.319,11.126-6.191,25.988-2.391c0.902,0.23,1.446,1.148,1.215,2.05c-0.23,0.901-1.15,1.444-2.049,1.215
					c-16.046-4.101-21.365-1.711-21.936,0.128c-0.904,2.907,5.349,9.695,19.441,14.879c0.873,0.321,1.321,1.289,0.999,2.163
					C373.662,389.51,373.017,389.932,372.332,389.932z"/>
			</g>
			<g>
				<path style="fill:#BF6E1D;" d="M376.138,385.938c1.09-0.125,2.254-0.025,3.404,0.349c1.145,0.378,2.257,1.081,3.098,2.058
					c1.704,1.978,2.036,4.831,1.129,7.035c-0.856,2.251-2.846,3.88-4.924,4.387c-2.085,0.548-4.14,0.213-5.888-0.539
					c1.905-0.177,3.701-0.574,5.08-1.436c1.379-0.849,2.249-2.114,2.497-3.431c0.256-1.319-0.115-2.604-0.871-3.44
					c-0.756-0.855-1.978-1.357-3.523-1.614l-0.085-0.014c-0.923-0.153-1.547-1.026-1.394-1.949
					C374.785,386.58,375.406,386.022,376.138,385.938z"/>
			</g>
			<g>
				<path style="fill:#DD8924;" d="M372.332,385.75c1.09-0.125,2.254-0.025,3.404,0.349c1.145,0.378,2.257,1.081,3.098,2.058
					c1.704,1.978,2.036,4.831,1.129,7.035c-0.856,2.252-2.847,3.88-4.924,4.387c-2.085,0.548-4.14,0.214-5.888-0.539
					c1.904-0.177,3.701-0.574,5.08-1.437c1.379-0.849,2.249-2.114,2.497-3.43c0.256-1.319-0.115-2.604-0.871-3.44
					c-0.756-0.855-1.978-1.357-3.523-1.614l-0.085-0.014c-0.923-0.153-1.547-1.026-1.394-1.949
					C370.979,386.393,371.599,385.835,372.332,385.75z"/>
			</g>
			<g>
				<path style="fill:#F2AC30;" d="M369.898,385.75c1.09-0.125,2.254-0.025,3.404,0.349c1.145,0.378,2.257,1.081,3.098,2.058
					c1.704,1.978,2.036,4.831,1.129,7.035c-0.856,2.252-2.847,3.88-4.924,4.387c-2.085,0.548-4.14,0.214-5.888-0.539
					c1.905-0.177,3.701-0.574,5.08-1.437c1.379-0.849,2.249-2.114,2.497-3.43c0.256-1.319-0.115-2.604-0.871-3.44
					c-0.756-0.855-1.978-1.357-3.523-1.614l-0.085-0.014c-0.923-0.153-1.547-1.026-1.394-1.949
					C368.546,386.393,369.166,385.835,369.898,385.75z"/>
			</g>
		</g>
		<g>
			<path style="fill:#EF3F1D;" d="M344.995,338.819l-72.505-37.885c0,0,0.585,28.582,18.642,35.117
				c18.057,6.535,54.895,10.593,54.895,10.593L344.995,338.819z"/>
		</g>
		<g>
			<path style="fill:#FF684A;" d="M345.825,341.976l-66.487-23.279c0,0,4.048,24.283,20.246,27.609
				c16.198,3.326,48.092,2.21,48.092,2.21L345.825,341.976z"/>
		</g>
		<g>
			<g>
				<path style="fill:#D17D19;" d="M446.144,356.379c1.613,4.123,17.478-2.51,34.507-2.51h-32.984L446.144,356.379z"/>
			</g>
			<g>
				<path style="fill:#FFCD40;" d="M448.385,338.453c27.068,0,31.55,8.246,32.267,15.416h-31.908L448.385,338.453z"/>
			</g>
			<g>
				<path style="fill:#ED9B2F;" d="M451.168,338.486c-0.902-0.02-1.825-0.033-2.783-0.033l0.358,15.416h7.423
					c0.005-0.209,0.016-0.417,0.016-0.627C456.183,347.711,454.318,342.606,451.168,338.486z"/>
			</g>
			<g>
				<path style="fill:#252538;" d="M473.016,342.671c-2.771,2.2-4.554,5.592-4.554,9.405c0,0.611,0.06,1.206,0.148,1.793h12.041
					C480.26,349.949,478.733,345.711,473.016,342.671z"/>
			</g>
			<g>
				<path style="fill:#FFDC83;" d="M468.063,342.679c-0.105,0.802-2.598,1.137-5.567,0.748c-2.969-0.389-5.292-1.355-5.186-2.157
					s2.598-1.137,5.567-0.748C465.846,340.911,468.168,341.876,468.063,342.679z"/>
			</g>
		</g>
		<g>
			<g>
				<path style="fill:#F2AC30;" d="M356.108,392.178c-0.193,0-0.39-0.033-0.582-0.104c-14.485-5.329-23.324-13.16-21.495-19.042
					c1.654-5.319,11.127-6.192,25.988-2.391c0.902,0.23,1.446,1.148,1.215,2.049c-0.23,0.901-1.15,1.444-2.049,1.215
					c-16.046-4.101-21.364-1.71-21.936,0.128c-0.904,2.907,5.349,9.695,19.441,14.879c0.873,0.321,1.321,1.289,0.999,2.163
					C357.439,391.756,356.794,392.178,356.108,392.178z"/>
			</g>
			<g>
				<path style="fill:#BF6E1D;" d="M359.915,388.184c1.09-0.125,2.254-0.025,3.404,0.349c1.145,0.378,2.257,1.081,3.098,2.058
					c1.704,1.978,2.036,4.831,1.129,7.035c-0.856,2.252-2.847,3.88-4.924,4.387c-2.085,0.548-4.14,0.213-5.888-0.539
					c1.904-0.177,3.701-0.574,5.08-1.436c1.379-0.849,2.249-2.114,2.497-3.431c0.256-1.319-0.115-2.604-0.871-3.44
					c-0.756-0.855-1.978-1.358-3.523-1.614l-0.085-0.014c-0.923-0.153-1.547-1.026-1.394-1.949
					C358.562,388.827,359.183,388.268,359.915,388.184z"/>
			</g>
			<g>
				<path style="fill:#DD8924;" d="M356.108,387.997c1.09-0.125,2.254-0.025,3.404,0.349c1.145,0.378,2.257,1.081,3.098,2.058
					c1.704,1.978,2.036,4.831,1.129,7.035c-0.856,2.251-2.846,3.88-4.924,4.387c-2.085,0.548-4.14,0.213-5.888-0.539
					c1.905-0.177,3.701-0.574,5.08-1.437c1.379-0.849,2.249-2.114,2.497-3.43c0.256-1.319-0.115-2.604-0.871-3.44
					c-0.756-0.855-1.978-1.357-3.523-1.614l-0.085-0.014c-0.923-0.153-1.547-1.026-1.394-1.949
					C354.756,388.639,355.376,388.081,356.108,387.997z"/>
			</g>
			<g>
				<path style="fill:#F2AC30;" d="M353.675,387.997c1.09-0.125,2.254-0.025,3.404,0.349c1.145,0.378,2.257,1.081,3.098,2.058
					c1.704,1.978,2.036,4.831,1.129,7.035c-0.856,2.251-2.846,3.88-4.924,4.387c-2.085,0.548-4.14,0.213-5.888-0.539
					c1.905-0.177,3.701-0.574,5.08-1.437c1.379-0.849,2.249-2.114,2.497-3.43c0.256-1.319-0.115-2.604-0.871-3.44
					c-0.756-0.855-1.978-1.357-3.523-1.614l-0.085-0.014c-0.923-0.153-1.547-1.026-1.394-1.949
					C352.323,388.639,352.943,388.081,353.675,387.997z"/>
			</g>
		</g>
		<g>
			<g>
				<g>
					<path style="fill:#EF3F1D;" d="M447.501,352.989c0,16.874-20.198,34.446-43.035,34.446c-51.477,0-69.697-30.886-70.258-41.743
						c-0.872-16.851,62.245-26.581,85.171-26.581C442.305,319.111,447.501,336.115,447.501,352.989z"/>
				</g>
				<g>
					<path style="fill:#FFFDF8;" d="M432.564,321.627c2.199,5.517,2.957,11.958,2.957,18.383c0,16.874-20.198,34.446-43.035,34.446
						c-25.059,0-42.235-7.32-53.331-16.085c8.392,13.025,28.216,29.063,65.311,29.063c22.837,0,43.035-17.572,43.035-34.446
						C447.501,340.01,444.417,326.963,432.564,321.627z"/>
				</g>
				<g>
					<ellipse style="fill:#EF3F1D;" cx="423.179" cy="347.982" rx="28.797" ry="28.035"/>
				</g>
				<g>
					<ellipse style="fill:#A31332;" cx="429.095" cy="350.227" rx="19.817" ry="17.513"/>
				</g>
				<g>
					<path style="fill:#A31332;" d="M408.923,319.576c0.529,7.289,22.885,10.482,32.865,9.79
						c-4.193-6.159-11.165-10.255-22.41-10.255C416.47,319.111,412.913,319.268,408.923,319.576z"/>
				</g>
				<g>
					<ellipse style="fill:#FFFDF8;" cx="430.343" cy="348.168" rx="19.04" ry="16.827"/>
				</g>
				<g>
					<path style="fill:#CCE2EA;" d="M443.263,347.439h-16.915c0.003,0.081-0.001,0.161,0.004,0.242
						c0.317,4.667,4.356,8.193,9.023,7.876C439.737,355.262,443.101,351.712,443.263,347.439z"/>
				</g>
				<g>
					<path style="fill:#252538;" d="M434.461,342.082c2.776-0.189,5.179,1.909,5.368,4.686c0.188,2.776-1.91,5.179-4.686,5.368
						c-2.776,0.188-5.18-1.909-5.368-4.686C429.586,344.673,431.684,342.27,434.461,342.082z"/>
				</g>
			</g>
			<g>
				<path style="fill:#EF3F1D;" d="M424.776,303.6L424.776,303.6c0.48,10.733,9.171,22.066,19.413,25.312l0,0
					C443.709,318.179,435.018,306.846,424.776,303.6z"/>
			</g>
			<g>
				<path style="fill:#FF684A;" d="M416.175,313.497L416.175,313.497c4.709,9.657,17.191,16.598,27.879,15.503v0
					C439.345,319.342,426.863,312.401,416.175,313.497z"/>
			</g>
		</g>
		<g>
			<path style="fill:#A31332;" d="M407.341,361.873c0,0-53.938,2.16-110.216,22.663c0,0-2.735-9.483,12.582-16.268
				c0,0-3.344-8.497,6.626-13.467c0,0-2.428-10.513,12.312-14.463c0,0,0.055-8.604,14.466-8.296
				C343.111,332.043,369.603,307.088,407.341,361.873z"/>
			<path style="fill:#682335;" d="M385.826,337.451c-3.935,0.426-5.01,2.653-3.248,5.635c0,0-7.529,0.38-3.422,6.084
				c0,0-8.442,5.096-0.304,7.758c0,0-8.981,4.815-2.319,8.118c18.71-2.687,30.809-3.173,30.809-3.173
				C399.66,350.723,392.446,342.877,385.826,337.451z"/>
			<path style="fill:#FF684A;" d="M376.19,334.948l-5.334-1.674c-1.78-0.518-3.57-1.028-5.373-1.312
				c-1.62-0.27-4.355-0.36-3.109,1.18c0.458,0.684,1.144,1.287,1.846,1.835c0.712,0.547,1.482,1.03,2.282,1.455l0.002,0.001
				l2.424,1.335l-2.736-0.372c-1.502-0.205-3.029-0.358-4.547-0.46c-1.518-0.095-3.044-0.149-4.534-0.039
				c-0.738,0.059-1.488,0.152-2.123,0.379c-0.33,0.098-0.581,0.281-0.696,0.431c-0.104,0.137-0.109,0.299,0.038,0.581
				c0.269,0.533,0.834,1.058,1.386,1.527c0.576,0.468,1.192,0.9,1.82,1.321l1.162,0.78l-1.39,0.16
				c-1.414,0.163-2.844,0.387-4.237,0.686c-1.362,0.314-2.837,0.667-3.859,1.37c-1.026,0.522,0.633,1.465,1.842,1.968
				c1.296,0.548,2.674,0.966,4.054,1.359l2.515,0.716l-2.6,0.289c-1.42,0.158-2.855,0.373-4.259,0.654
				c-1.396,0.288-2.817,0.619-4.045,1.194c-0.604,0.263-1.16,0.752-1.036,0.977c0.022,0.147,0.199,0.381,0.444,0.574
				c0.234,0.204,0.533,0.373,0.82,0.549c1.222,0.647,2.59,1.118,3.955,1.553l1.696,0.541l-1.727,0.448
				c-1.033,0.268-2.085,0.616-3.046,1.061c-0.477,0.226-0.946,0.479-1.315,0.787c-0.383,0.31-0.595,0.66-0.523,0.904
				c0.068,0.286,0.441,0.641,0.856,0.908c0.422,0.277,0.908,0.503,1.4,0.71c0.992,0.411,2.042,0.729,3.097,1.023l0.906,0.253
				l-0.702,0.629l-0.001,0.001c-0.409,0.355-0.81,0.794-1.11,1.238c-0.3,0.447-0.468,0.941-0.292,1.247
				c0.164,0.338,0.72,0.578,1.257,0.703c0.554,0.122,1.139,0.208,1.734,0.229c2.383,0.107,4.806-0.178,7.202-0.497
				c-2.366,0.51-4.748,0.994-7.21,1.084c-0.615,0.024-1.241-0.001-1.874-0.106c-0.608-0.131-1.344-0.274-1.831-0.995
				c-0.229-0.361-0.258-0.82-0.18-1.182c0.075-0.371,0.223-0.69,0.39-0.981c0.347-0.581,0.757-1.053,1.24-1.514l0.002-0.001
				l0.204,0.882c-1.084-0.303-2.165-0.628-3.226-1.067c-0.53-0.224-1.057-0.466-1.566-0.798c-0.485-0.343-1.058-0.729-1.294-1.535
				c-0.102-0.416,0.015-0.854,0.199-1.173c0.189-0.322,0.43-0.549,0.67-0.755c0.488-0.402,1.009-0.675,1.533-0.925
				c1.056-0.487,2.123-0.839,3.239-1.129l-0.031,0.989c-1.4-0.449-2.797-0.921-4.147-1.635c-0.333-0.203-0.669-0.391-0.987-0.664
				c-0.307-0.261-0.66-0.595-0.789-1.163c-0.135-0.593,0.233-1.169,0.556-1.429c0.335-0.293,0.686-0.498,1.038-0.666
				c1.411-0.657,2.851-0.977,4.293-1.278c1.446-0.289,2.888-0.505,4.356-0.669l-0.085,1.005c-1.407-0.401-2.811-0.823-4.186-1.405
				c-0.688-0.292-1.37-0.617-2.019-1.14c-0.305-0.254-0.686-0.616-0.756-1.235c-0.043-0.649,0.389-1.089,0.708-1.346
				c0.693-0.503,1.407-0.756,2.12-0.996c0.714-0.23,1.432-0.409,2.152-0.567c1.442-0.31,2.881-0.535,4.347-0.704l-0.228,0.94
				c-0.649-0.436-1.292-0.886-1.909-1.388c-0.602-0.529-1.225-1.044-1.662-1.884c-0.118-0.197-0.177-0.471-0.21-0.748
				c0.006-0.295,0.074-0.61,0.254-0.847c0.342-0.458,0.794-0.684,1.191-0.816c0.816-0.287,1.61-0.372,2.399-0.439
				c1.577-0.116,3.131-0.058,4.68,0.038c1.549,0.104,3.083,0.258,4.626,0.468l-0.312,0.962l-0.002-0.001
				c-0.848-0.445-1.666-0.952-2.436-1.536c-0.769-0.587-1.497-1.244-2.07-2.121c-0.251-0.436-0.582-1.001-0.338-1.758
				c0.128-0.362,0.43-0.621,0.702-0.751c0.279-0.144,0.549-0.204,0.813-0.249c1.043-0.128,1.994,0.019,2.933,0.191
				c1.873,0.358,3.66,0.945,5.417,1.598C372.801,333.363,374.51,334.127,376.19,334.948z"/>
		</g>
	</g>
	<g>
		<path style="fill:#682335;" d="M631.515,267.715c0,0-19.947,7.003-18.208,23.343c0,0-13.228,4.493-9.418,15.696
			c0,0-14.396,4.862-4.818,16.761c0,0-10.271,5.329-1.771,15.433c0,0-3.393,25.391,74.783,22.05
			C632.318,320.932,631.515,267.715,631.515,267.715z"/>
		<g>
			<g>
				<path style="fill:#F2AC30;" d="M614.2,389.703c-0.193,0-0.39-0.033-0.582-0.104c-14.485-5.329-23.324-13.16-21.495-19.042
					c1.653-5.319,11.126-6.191,25.988-2.391c0.901,0.23,1.446,1.148,1.215,2.05c-0.23,0.901-1.15,1.444-2.049,1.215
					c-16.045-4.101-21.364-1.711-21.936,0.128c-0.904,2.907,5.349,9.695,19.441,14.879c0.873,0.321,1.321,1.289,0.999,2.163
					C615.531,389.281,614.886,389.703,614.2,389.703z"/>
			</g>
			<g>
				<path style="fill:#BF6E1D;" d="M618.007,385.71c1.09-0.125,2.254-0.025,3.404,0.349c1.145,0.378,2.257,1.081,3.098,2.058
					c1.704,1.978,2.036,4.831,1.129,7.035c-0.856,2.251-2.846,3.88-4.924,4.387c-2.085,0.548-4.14,0.213-5.888-0.539
					c1.905-0.177,3.701-0.574,5.08-1.437c1.379-0.848,2.249-2.114,2.497-3.43c0.256-1.319-0.115-2.604-0.871-3.44
					c-0.756-0.855-1.978-1.357-3.523-1.614l-0.085-0.014c-0.923-0.153-1.547-1.026-1.394-1.949
					C616.654,386.352,617.274,385.794,618.007,385.71z"/>
			</g>
			<g>
				<path style="fill:#DD8924;" d="M614.2,385.522c1.09-0.125,2.254-0.025,3.404,0.349c1.145,0.378,2.257,1.081,3.098,2.058
					c1.704,1.978,2.036,4.831,1.129,7.035c-0.856,2.251-2.846,3.88-4.924,4.387c-2.085,0.548-4.14,0.213-5.888-0.539
					c1.904-0.177,3.701-0.574,5.08-1.437c1.379-0.849,2.249-2.114,2.497-3.43c0.256-1.319-0.115-2.604-0.871-3.44
					c-0.756-0.855-1.978-1.357-3.523-1.614l-0.085-0.014c-0.923-0.153-1.547-1.026-1.394-1.949
					C612.848,386.165,613.468,385.606,614.2,385.522z"/>
			</g>
			<g>
				<path style="fill:#F2AC30;" d="M611.767,385.522c1.09-0.125,2.254-0.025,3.404,0.349c1.145,0.378,2.257,1.081,3.098,2.058
					c1.704,1.978,2.036,4.831,1.129,7.035c-0.856,2.251-2.846,3.88-4.924,4.387c-2.085,0.548-4.14,0.213-5.888-0.539
					c1.904-0.177,3.701-0.574,5.08-1.437c1.379-0.849,2.249-2.114,2.497-3.43c0.256-1.319-0.115-2.604-0.871-3.44
					c-0.756-0.855-1.978-1.357-3.523-1.614l-0.085-0.014c-0.923-0.153-1.547-1.026-1.394-1.949
					C610.415,386.165,611.035,385.606,611.767,385.522z"/>
			</g>
		</g>
		<g>
			<path style="fill:#EF3F1D;" d="M588.243,338.351l-78.37-23.461c0,0,5.99,27.954,24.959,30.949s55.907,0,55.907,0L588.243,338.351
				z"/>
		</g>
		<g>
			<path style="fill:#FF684A;" d="M589.657,341.293l-69.693-10.26c0,0,8.575,23.076,25.11,23.272
				c16.535,0.197,47.639-6.942,47.639-6.942L589.657,341.293z"/>
		</g>
		<g>
			<g>
				<path style="fill:#D17D19;" d="M688.013,356.151c1.613,4.123,17.478-2.51,34.507-2.51h-32.984L688.013,356.151z"/>
			</g>
			<g>
				<path style="fill:#FFCD40;" d="M690.254,338.225c27.068,0,31.55,8.246,32.267,15.416h-31.908L690.254,338.225z"/>
			</g>
			<g>
				<path style="fill:#ED9B2F;" d="M693.037,338.258c-0.902-0.02-1.825-0.033-2.783-0.033l0.359,15.416h7.423
					c0.005-0.209,0.016-0.417,0.016-0.627C698.052,347.483,696.187,342.378,693.037,338.258z"/>
			</g>
			<g>
				<path style="fill:#252538;" d="M714.885,342.443c-2.771,2.2-4.554,5.591-4.554,9.405c0,0.611,0.06,1.206,0.148,1.793h12.041
					C722.129,349.721,720.602,345.483,714.885,342.443z"/>
			</g>
			<g>
				<path style="fill:#FFDC83;" d="M709.932,342.451c-0.105,0.802-2.597,1.137-5.567,0.748c-2.969-0.389-5.291-1.355-5.186-2.157
					c0.105-0.802,2.597-1.137,5.567-0.748C707.715,340.683,710.037,341.648,709.932,342.451z"/>
			</g>
		</g>
		<g>
			<g>
				<path style="fill:#F2AC30;" d="M597.977,391.95c-0.193,0-0.39-0.033-0.582-0.104c-14.485-5.329-23.324-13.16-21.495-19.042
					c1.654-5.319,11.127-6.192,25.988-2.391c0.902,0.23,1.446,1.148,1.215,2.049c-0.23,0.902-1.15,1.444-2.049,1.215
					c-16.046-4.102-21.364-1.71-21.936,0.127c-0.904,2.907,5.349,9.695,19.441,14.879c0.873,0.321,1.321,1.289,0.999,2.163
					C599.308,391.528,598.663,391.95,597.977,391.95z"/>
			</g>
			<g>
				<path style="fill:#BF6E1D;" d="M601.784,387.956c1.09-0.125,2.254-0.025,3.404,0.349c1.145,0.378,2.257,1.081,3.098,2.058
					c1.704,1.978,2.036,4.831,1.129,7.035c-0.856,2.252-2.846,3.88-4.924,4.387c-2.085,0.548-4.14,0.213-5.888-0.539
					c1.904-0.177,3.701-0.574,5.08-1.437c1.379-0.849,2.249-2.114,2.497-3.431c0.256-1.319-0.115-2.604-0.871-3.44
					c-0.756-0.855-1.978-1.357-3.523-1.614l-0.085-0.014c-0.923-0.153-1.547-1.026-1.394-1.949
					C600.431,388.598,601.051,388.04,601.784,387.956z"/>
			</g>
			<g>
				<path style="fill:#DD8924;" d="M597.977,387.769c1.09-0.125,2.254-0.025,3.404,0.349c1.145,0.378,2.257,1.081,3.098,2.058
					c1.704,1.978,2.036,4.831,1.129,7.035c-0.856,2.251-2.846,3.88-4.924,4.387c-2.085,0.548-4.14,0.214-5.888-0.539
					c1.904-0.177,3.701-0.574,5.08-1.437c1.379-0.849,2.249-2.114,2.497-3.43c0.256-1.319-0.115-2.604-0.871-3.44
					c-0.756-0.855-1.978-1.357-3.523-1.614l-0.085-0.014c-0.923-0.153-1.547-1.026-1.394-1.949
					C596.625,388.411,597.245,387.853,597.977,387.769z"/>
			</g>
			<g>
				<path style="fill:#F2AC30;" d="M595.544,387.769c1.09-0.125,2.254-0.025,3.404,0.349c1.145,0.378,2.257,1.081,3.098,2.058
					c1.704,1.978,2.036,4.831,1.129,7.035c-0.856,2.251-2.846,3.88-4.924,4.387c-2.085,0.548-4.14,0.214-5.888-0.539
					c1.905-0.177,3.701-0.574,5.08-1.437c1.379-0.849,2.249-2.114,2.497-3.43c0.256-1.319-0.115-2.604-0.871-3.44
					c-0.756-0.855-1.978-1.357-3.523-1.614l-0.085-0.014c-0.923-0.153-1.547-1.026-1.394-1.949
					C594.192,388.411,594.812,387.853,595.544,387.769z"/>
			</g>
		</g>
		<g>
			<g>
				<g>
					<path style="fill:#EF3F1D;" d="M689.37,352.761c0,16.874-20.198,34.446-43.035,34.446c-51.477,0-69.697-30.886-70.258-41.743
						c-0.872-16.851,62.245-26.581,85.171-26.581C684.174,318.883,689.37,335.887,689.37,352.761z"/>
				</g>
				<g>
					<path style="fill:#FFFDF8;" d="M674.433,321.399c2.199,5.517,2.957,11.958,2.957,18.383c0,16.874-20.198,34.446-43.035,34.446
						c-25.059,0-42.234-7.32-53.331-16.085c8.392,13.025,28.216,29.063,65.311,29.063c22.837,0,43.035-17.572,43.035-34.446
						C689.37,339.782,686.285,326.735,674.433,321.399z"/>
				</g>
				<g>
					<ellipse style="fill:#EF3F1D;" cx="665.047" cy="347.754" rx="28.797" ry="28.035"/>
				</g>
				<g>
					<ellipse style="fill:#A31332;" cx="670.964" cy="349.999" rx="19.817" ry="17.513"/>
				</g>
				<g>
					<path style="fill:#A31332;" d="M650.792,319.348c0.529,7.289,22.885,10.482,32.865,9.79
						c-4.193-6.159-11.165-10.255-22.41-10.255C658.339,318.883,654.782,319.04,650.792,319.348z"/>
				</g>
				<g>
					<ellipse style="fill:#FFFDF8;" cx="672.211" cy="347.939" rx="19.04" ry="16.827"/>
				</g>
				<g>
					<path style="fill:#CCE2EA;" d="M685.132,347.211h-16.915c0.003,0.081-0.001,0.161,0.004,0.242
						c0.317,4.667,4.356,8.193,9.023,7.876C681.606,355.033,684.97,351.484,685.132,347.211z"/>
				</g>
				<g>
					<path style="fill:#252538;" d="M676.329,341.854c2.776-0.189,5.18,1.909,5.368,4.686c0.188,2.776-1.909,5.179-4.686,5.368
						c-2.776,0.188-5.18-1.909-5.368-4.686C671.455,344.445,673.553,342.042,676.329,341.854z"/>
				</g>
			</g>
			<g>
				<path style="fill:#EF3F1D;" d="M676.855,297.947L676.855,297.947c-4.086,9.937-0.976,23.876,6.946,31.134h0
					C687.887,319.144,684.777,305.205,676.855,297.947z"/>
			</g>
			<g>
				<path style="fill:#FF684A;" d="M664.887,303.3L664.887,303.3c0.203,10.742,8.601,22.295,18.756,25.803h0
					C683.439,318.361,675.042,306.809,664.887,303.3z"/>
			</g>
		</g>
		<g>
			<path style="fill:#A31332;" d="M649.848,361.953c-55.46-22.367-90.922-76.512-90.922-76.512s-10.063,16.545,1.922,32.469
				c0,0-6.772,10.817,3.367,20.505c0,0-7.388,11.744,7.443,19.435c0,0-4.052,10.285,8.812,16.644
				C580.47,374.495,594.616,402.102,649.848,361.953z"/>
			<path style="fill:#FF684A;" d="M584.653,328.634c-2.681-0.756-5.352-1.548-8.052-1.984c-1.337-0.232-2.709-0.391-3.967-0.267
				c-0.612,0.072-1.214,0.234-1.54,0.513c-0.302,0.267-0.381,0.595-0.276,1.129c0.238,1.052,1.07,2.173,1.936,3.13
				c0.899,0.966,1.905,1.857,2.957,2.69c2.129,1.643,4.486,3.002,6.954,4.073l3.258,1.415l-3.495,0.148l-0.005,0
				c-1.591,0.133-3.223,0.365-4.767,0.733c-0.771,0.188-1.531,0.415-2.204,0.722c-0.676,0.28-1.245,0.779-1.223,1.028
				c-0.103,0.238,0.39,0.876,0.943,1.319c0.575,0.471,1.253,0.888,1.949,1.273c1.4,0.77,2.901,1.417,4.411,2.035l1.495,0.612
				l-1.396,0.845c-1.154,0.698-2.331,1.6-3.112,2.633c-0.815,1.065-1,2.146-0.169,3.015c0.791,0.904,2.142,1.506,3.447,1.992
				c1.336,0.479,2.744,0.826,4.162,1.13l2.404,0.515l-2.25,1.024c-1.304,0.594-2.705,1.401-3.523,2.391
				c-0.203,0.245-0.319,0.496-0.371,0.707c-0.054,0.213-0.025,0.378,0.091,0.585c0.21,0.417,0.794,0.848,1.423,1.163
				c1.268,0.662,2.768,1.071,4.247,1.432c1.492,0.355,3.023,0.605,4.552,0.846l1.398,0.221l-0.902,1.109
				c-0.715,0.879-1.369,1.975-1.614,3.009c-0.122,0.52-0.105,1.006,0.045,1.4c0.163,0.388,0.491,0.712,0.943,0.965
				c0.909,0.514,2.152,0.686,3.352,0.767c1.219,0.07,2.468,0.015,3.715-0.081l1.745-0.134l-1.028,1.427l0,0
				c-0.693,0.942-1.301,2.35-0.92,3.013c0.173,0.331,0.654,0.627,1.261,0.76c0.594,0.156,1.265,0.177,1.932,0.192
				c1.347,0.011,2.722-0.171,4.094-0.369c1.373-0.206,2.742-0.484,4.117-0.755c-2.611,1.015-5.281,1.908-8.159,2.237
				c-0.724,0.069-1.461,0.095-2.238-0.03c-0.745-0.118-1.671-0.4-2.257-1.276c-0.553-0.907-0.407-1.9-0.188-2.651
				c0.256-0.778,0.601-1.426,1.064-2.092l0.001-0.001l0.716,1.293c-1.302,0.1-2.614,0.159-3.949,0.084
				c-1.329-0.104-2.708-0.239-4.053-0.974c-0.658-0.363-1.316-0.959-1.645-1.763c-0.316-0.803-0.294-1.653-0.125-2.372
				c0.369-1.458,1.083-2.603,1.966-3.706l0.495,1.329c-1.564-0.247-3.129-0.502-4.686-0.872c-1.555-0.385-3.113-0.791-4.632-1.576
				c-0.741-0.402-1.549-0.864-2.099-1.839c-0.275-0.469-0.385-1.134-0.243-1.682c0.127-0.549,0.389-1.008,0.682-1.368
				c0.59-0.731,1.276-1.241,1.973-1.7c0.708-0.453,1.409-0.834,2.191-1.18l0.153,1.539c-1.471-0.315-2.94-0.675-4.387-1.193
				c-0.722-0.265-1.443-0.551-2.141-0.944c-0.697-0.381-1.392-0.834-1.979-1.51c-0.294-0.332-0.543-0.734-0.729-1.179
				c-0.152-0.459-0.253-0.96-0.195-1.441c0.076-0.978,0.534-1.77,1.023-2.429c1.021-1.32,2.248-2.238,3.609-3.07l0.098,1.457
				c-1.551-0.635-3.094-1.298-4.595-2.123c-0.749-0.416-1.49-0.865-2.197-1.442c-0.35-0.302-0.698-0.615-1.004-1.044
				c-0.162-0.186-0.281-0.483-0.404-0.733c-0.082-0.312-0.167-0.622-0.11-0.979c0.084-0.694,0.515-1.238,0.911-1.553
				c0.406-0.332,0.825-0.567,1.241-0.756c0.833-0.379,1.668-0.621,2.503-0.826c1.675-0.397,3.329-0.631,5.033-0.774l0.006-0.001
				l-0.237,1.563c-2.695-0.98-5.215-2.395-7.475-4.16c-1.135-0.878-2.202-1.854-3.15-2.964c-0.469-0.562-0.924-1.141-1.312-1.792
				c-0.398-0.635-0.737-1.353-0.898-2.2c-0.042-0.21-0.072-0.427-0.053-0.671c-0.005-0.232,0.022-0.47,0.11-0.719
				c0.117-0.49,0.474-0.94,0.857-1.222c0.794-0.561,1.621-0.652,2.378-0.711c1.522-0.056,2.924,0.253,4.294,0.608
				C579.562,326.337,582.148,327.405,584.653,328.634z"/>
			<path style="fill:#682335;" d="M615.781,343.113c-11.977-1.389-2.24,9.053,5.644,11.418c0,0-13.347,3.765-1.483,7.415
				c0,0-5.476,6.617,3.536,5.932c0,0-4.906,7.626,1.683,9.117c7.135-3.377,15.318-8.232,24.686-15.042
				C637.43,356.945,626.019,350.342,615.781,343.113z"/>
		</g>
	</g>
	<g>
		<path style="fill:#682335;" d="M601.385,162.687c0,0,50.241,31.484,121.199,13.688c0,0-1.217-10.191-15.059-12.017
			c0,0-1.673-7.301-11.636-9.431c0,0-1.065-11.712-11.94-12.929c0,0-2.662-10.039-15.819-9.431
			C668.129,132.568,645.07,111.277,601.385,162.687z"/>
		<g>
			<g>
				<path style="fill:#F2AC30;" d="M614.106,190.746c-0.193,0-0.39-0.033-0.582-0.104c-14.485-5.329-23.324-13.16-21.495-19.042
					c1.653-5.319,11.126-6.191,25.988-2.391c0.901,0.23,1.446,1.148,1.215,2.049c-0.23,0.901-1.15,1.444-2.049,1.215
					c-16.045-4.101-21.364-1.711-21.936,0.128c-0.904,2.907,5.349,9.695,19.441,14.879c0.873,0.321,1.321,1.29,1,2.163
					C615.437,190.324,614.792,190.746,614.106,190.746z"/>
			</g>
			<g>
				<path style="fill:#BF6E1D;" d="M617.913,186.752c1.09-0.125,2.254-0.025,3.404,0.349c1.145,0.378,2.257,1.081,3.097,2.058
					c1.704,1.978,2.036,4.831,1.129,7.035c-0.856,2.251-2.846,3.88-4.924,4.387c-2.085,0.548-4.14,0.213-5.888-0.539
					c1.905-0.177,3.701-0.574,5.08-1.437c1.379-0.848,2.249-2.114,2.497-3.43c0.256-1.319-0.115-2.604-0.871-3.44
					c-0.756-0.855-1.978-1.357-3.523-1.614l-0.085-0.014c-0.923-0.153-1.547-1.026-1.394-1.949
					C616.56,187.395,617.18,186.836,617.913,186.752z"/>
			</g>
			<g>
				<path style="fill:#DD8924;" d="M614.106,186.565c1.09-0.125,2.254-0.025,3.404,0.349c1.145,0.378,2.257,1.081,3.098,2.058
					c1.704,1.978,2.036,4.831,1.129,7.035c-0.856,2.252-2.846,3.88-4.924,4.387c-2.085,0.548-4.14,0.213-5.888-0.539
					c1.904-0.177,3.701-0.574,5.08-1.437c1.379-0.848,2.249-2.114,2.497-3.43c0.256-1.319-0.115-2.604-0.871-3.44
					c-0.756-0.855-1.978-1.358-3.523-1.614l-0.085-0.014c-0.923-0.153-1.547-1.026-1.394-1.949
					C612.754,187.208,613.374,186.649,614.106,186.565z"/>
			</g>
			<g>
				<path style="fill:#F2AC30;" d="M611.673,186.565c1.09-0.125,2.254-0.025,3.404,0.349c1.145,0.378,2.257,1.081,3.098,2.058
					c1.704,1.978,2.036,4.831,1.129,7.035c-0.856,2.252-2.847,3.88-4.924,4.387c-2.085,0.548-4.14,0.213-5.888-0.539
					c1.904-0.177,3.701-0.574,5.08-1.437c1.379-0.848,2.249-2.114,2.497-3.43c0.256-1.319-0.115-2.604-0.871-3.44
					c-0.756-0.855-1.978-1.358-3.523-1.614l-0.085-0.014c-0.923-0.153-1.547-1.026-1.394-1.949
					C610.321,187.208,610.941,186.649,611.673,186.565z"/>
			</g>
		</g>
		<g>
			<path style="fill:#EF3F1D;" d="M586.769,139.633l-72.505-37.885c0,0,0.585,28.582,18.643,35.117
				c18.057,6.535,54.894,10.593,54.894,10.593L586.769,139.633z"/>
		</g>
		<g>
			<path style="fill:#FF684A;" d="M587.6,142.79l-66.487-23.279c0,0,4.048,24.283,20.246,27.609
				c16.198,3.326,48.092,2.21,48.092,2.21L587.6,142.79z"/>
		</g>
		<g>
			<g>
				<path style="fill:#D17D19;" d="M687.919,157.193c1.613,4.123,17.478-2.51,34.507-2.51h-32.984L687.919,157.193z"/>
			</g>
			<g>
				<path style="fill:#FFCD40;" d="M690.16,139.267c27.068,0,31.55,8.246,32.267,15.416h-31.908L690.16,139.267z"/>
			</g>
			<g>
				<path style="fill:#ED9B2F;" d="M692.943,139.3c-0.902-0.02-1.825-0.033-2.783-0.033l0.359,15.416h7.423
					c0.005-0.209,0.016-0.417,0.016-0.628C697.958,148.526,696.093,143.42,692.943,139.3z"/>
			</g>
			<g>
				<path style="fill:#252538;" d="M714.791,143.486c-2.771,2.2-4.554,5.592-4.554,9.405c0,0.611,0.06,1.206,0.148,1.793h12.041
					C722.035,150.764,720.508,146.526,714.791,143.486z"/>
			</g>
			<g>
				<path style="fill:#FFDC83;" d="M709.838,143.493c-0.105,0.802-2.597,1.137-5.567,0.748c-2.969-0.389-5.291-1.355-5.186-2.157
					c0.105-0.802,2.597-1.137,5.567-0.748C707.621,141.725,709.943,142.691,709.838,143.493z"/>
			</g>
		</g>
		<g>
			<g>
				<path style="fill:#F2AC30;" d="M597.883,192.992c-0.193,0-0.39-0.033-0.582-0.104c-14.485-5.329-23.324-13.16-21.495-19.042
					c1.654-5.319,11.127-6.192,25.988-2.391c0.902,0.23,1.446,1.148,1.215,2.049c-0.23,0.902-1.15,1.444-2.049,1.215
					c-16.046-4.102-21.364-1.71-21.936,0.128c-0.904,2.907,5.349,9.695,19.441,14.879c0.873,0.321,1.321,1.289,0.999,2.163
					C599.214,192.57,598.569,192.992,597.883,192.992z"/>
			</g>
			<g>
				<path style="fill:#BF6E1D;" d="M601.69,188.998c1.09-0.125,2.254-0.025,3.404,0.349c1.145,0.378,2.257,1.081,3.098,2.058
					c1.704,1.978,2.036,4.831,1.129,7.035c-0.856,2.252-2.846,3.88-4.924,4.387c-2.085,0.548-4.14,0.214-5.888-0.539
					c1.905-0.177,3.701-0.574,5.08-1.437c1.379-0.848,2.249-2.114,2.497-3.43c0.256-1.319-0.115-2.604-0.871-3.44
					c-0.756-0.855-1.978-1.357-3.523-1.614l-0.085-0.014c-0.923-0.153-1.547-1.026-1.394-1.949
					C600.337,189.641,600.957,189.083,601.69,188.998z"/>
			</g>
			<g>
				<path style="fill:#DD8924;" d="M597.883,188.811c1.09-0.125,2.254-0.025,3.404,0.349c1.145,0.378,2.257,1.081,3.098,2.058
					c1.704,1.978,2.036,4.83,1.129,7.035c-0.856,2.251-2.846,3.88-4.924,4.387c-2.085,0.548-4.14,0.214-5.888-0.539
					c1.904-0.177,3.701-0.574,5.08-1.437c1.379-0.848,2.249-2.114,2.497-3.43c0.256-1.319-0.115-2.604-0.871-3.44
					c-0.756-0.855-1.978-1.357-3.523-1.614l-0.085-0.014c-0.923-0.153-1.547-1.026-1.394-1.949
					C596.531,189.454,597.151,188.895,597.883,188.811z"/>
			</g>
			<g>
				<path style="fill:#F2AC30;" d="M595.45,188.811c1.09-0.125,2.254-0.025,3.404,0.349c1.145,0.378,2.257,1.081,3.098,2.058
					c1.704,1.978,2.036,4.83,1.129,7.035c-0.856,2.251-2.846,3.88-4.924,4.387c-2.085,0.548-4.14,0.214-5.888-0.539
					c1.905-0.177,3.701-0.574,5.08-1.437c1.379-0.848,2.249-2.114,2.497-3.43c0.256-1.319-0.115-2.604-0.871-3.44
					c-0.756-0.855-1.978-1.357-3.523-1.614l-0.085-0.014c-0.923-0.153-1.547-1.026-1.394-1.949
					C594.098,189.454,594.718,188.895,595.45,188.811z"/>
			</g>
		</g>
		<g>
			<g>
				<g>
					<path style="fill:#EF3F1D;" d="M689.276,153.804c0,16.874-20.198,34.446-43.035,34.446c-51.477,0-69.697-30.886-70.258-41.743
						c-0.872-16.851,62.245-26.581,85.171-26.581C684.08,119.925,689.276,136.93,689.276,153.804z"/>
				</g>
				<g>
					<path style="fill:#FFFDF8;" d="M674.339,122.442c2.199,5.517,2.957,11.958,2.957,18.384c0,16.874-20.198,34.446-43.035,34.446
						c-25.059,0-42.234-7.32-53.331-16.085c8.392,13.025,28.216,29.063,65.311,29.063c22.837,0,43.035-17.572,43.035-34.446
						C689.276,140.825,686.191,127.778,674.339,122.442z"/>
				</g>
				<g>
					<ellipse style="fill:#EF3F1D;" cx="664.953" cy="148.796" rx="28.797" ry="28.035"/>
				</g>
				<g>
					<ellipse style="fill:#A31332;" cx="670.87" cy="151.041" rx="19.817" ry="17.513"/>
				</g>
				<g>
					<path style="fill:#A31332;" d="M650.698,120.391c0.529,7.289,22.885,10.482,32.865,9.79
						c-4.193-6.159-11.165-10.255-22.41-10.255C658.245,119.925,654.688,120.083,650.698,120.391z"/>
				</g>
				<g>
					<ellipse style="fill:#FFFDF8;" cx="672.117" cy="148.982" rx="19.04" ry="16.827"/>
				</g>
				<g>
					<path style="fill:#CCE2EA;" d="M685.038,148.253h-16.915c0.003,0.081-0.001,0.161,0.004,0.242
						c0.317,4.667,4.356,8.193,9.023,7.876C681.512,156.076,684.876,152.527,685.038,148.253z"/>
				</g>
				<g>
					<path style="fill:#252538;" d="M676.235,142.896c2.776-0.189,5.18,1.909,5.368,4.686c0.188,2.776-1.909,5.179-4.686,5.368
						c-2.776,0.188-5.18-1.909-5.368-4.686C671.361,145.488,673.459,143.085,676.235,142.896z"/>
				</g>
			</g>
			<g>
				<path style="fill:#EF3F1D;" d="M666.55,104.415L666.55,104.415c0.48,10.733,9.171,22.066,19.413,25.312h0
					C685.484,118.994,676.792,107.661,666.55,104.415z"/>
			</g>
			<g>
				<path style="fill:#FF684A;" d="M657.95,114.311L657.95,114.311c4.709,9.657,17.191,16.598,27.879,15.503l0,0
					C681.12,120.157,668.638,113.216,657.95,114.311z"/>
			</g>
		</g>
		<g>
			<g>
				<path style="fill:#A31332;" d="M649.116,162.687c0,0-50.241,31.484-121.199,13.688c0,0,1.217-10.191,15.059-12.017
					c0,0,1.673-7.301,11.636-9.431c0,0,1.065-11.712,11.94-12.929c0,0,2.662-10.039,15.819-9.431
					C582.371,132.568,605.43,111.277,649.116,162.687z"/>
				<path style="fill:#682335;" d="M623.345,138.342c-4.818,1.464-5.677,4.642-2.764,8.269c0,0-10.348,2.026-3.527,9.105
					c0,0-10.673,8.736,1.123,10.801c0,0-8.487,6.26-4.558,10.075c22.343-5.666,35.496-13.904,35.496-13.904
					C639.522,151.397,630.924,143.615,623.345,138.342z"/>
			</g>
			<path style="fill:#FF684A;" d="M604.198,141.779c-2.01-0.661-4.015-1.315-6.026-1.933c-2.014-0.595-4.04-1.178-6.086-1.504
				c-1.014-0.156-2.064-0.258-2.996-0.108c-0.446,0.083-0.864,0.267-0.897,0.492c-0.096,0.214,0.05,0.662,0.309,1.046
				c0.526,0.787,1.306,1.473,2.105,2.096c0.81,0.621,1.685,1.17,2.594,1.652l2.599,1.378l-2.911-0.416l-0.001,0
				c-1.703-0.232-3.432-0.406-5.152-0.521c-1.72-0.107-3.45-0.169-5.142-0.044c-0.839,0.067-1.69,0.172-2.421,0.433
				c-0.378,0.113-0.675,0.323-0.821,0.513c-0.135,0.178-0.134,0.399,0.038,0.724c0.316,0.623,0.959,1.217,1.587,1.752
				c0.654,0.532,1.354,1.022,2.065,1.5l1.162,0.78l-1.39,0.16c-1.604,0.185-3.223,0.438-4.803,0.778
				c-0.79,0.173-1.573,0.369-2.33,0.613c-0.748,0.245-1.504,0.54-2.065,0.951c-0.265,0.216-0.408,0.435-0.382,0.578
				c0.004,0.156,0.186,0.429,0.473,0.646c0.553,0.449,1.276,0.814,2.009,1.119c1.472,0.623,3.034,1.096,4.598,1.541l2.515,0.716
				l-2.599,0.289c-1.611,0.179-3.235,0.423-4.827,0.742c-1.584,0.327-3.193,0.701-4.596,1.358c-0.683,0.302-1.349,0.851-1.209,1.18
				c0.032,0.194,0.244,0.466,0.525,0.689c0.27,0.235,0.611,0.428,0.939,0.629c1.392,0.737,2.942,1.27,4.49,1.763l1.696,0.541
				l-1.726,0.448c-1.175,0.305-2.366,0.699-3.46,1.206c-0.543,0.257-1.077,0.546-1.503,0.9c-0.438,0.355-0.704,0.771-0.615,1.091
				c0.088,0.358,0.524,0.762,0.998,1.069c0.483,0.317,1.036,0.574,1.596,0.81c1.127,0.467,2.318,0.827,3.514,1.161l0.906,0.253
				l-0.703,0.629l-0.002,0.001c-0.468,0.409-0.923,0.909-1.265,1.419c-0.34,0.512-0.543,1.094-0.324,1.472
				c0.207,0.408,0.848,0.673,1.461,0.815c0.632,0.137,1.297,0.23,1.971,0.251c2.702,0.108,5.443-0.228,8.152-0.601
				c-2.68,0.565-5.378,1.1-8.161,1.189c-0.695,0.024-1.401-0.008-2.112-0.128c-0.356-0.066-0.715-0.152-1.071-0.315
				c-0.352-0.143-0.72-0.401-0.964-0.792c-0.25-0.395-0.282-0.896-0.195-1.298c0.084-0.41,0.249-0.766,0.437-1.09
				c0.389-0.648,0.854-1.181,1.394-1.696l0.002-0.002l0.204,0.882c-1.225-0.342-2.446-0.71-3.643-1.205
				c-0.597-0.252-1.191-0.525-1.761-0.898c-0.544-0.384-1.18-0.818-1.436-1.697c-0.11-0.452,0.016-0.928,0.218-1.278
				c0.207-0.354,0.475-0.607,0.743-0.836c0.545-0.448,1.131-0.756,1.721-1.038c1.189-0.549,2.396-0.947,3.654-1.274l-0.031,0.989
				c-1.583-0.507-3.162-1.041-4.681-1.845c-0.374-0.227-0.752-0.439-1.107-0.744c-0.344-0.291-0.732-0.662-0.87-1.277
				c-0.145-0.641,0.25-1.265,0.609-1.555c0.371-0.324,0.764-0.554,1.158-0.743c1.585-0.738,3.214-1.101,4.844-1.441
				c1.634-0.326,3.266-0.572,4.925-0.756l-0.085,1.005c-1.591-0.454-3.178-0.931-4.73-1.587c-0.776-0.329-1.545-0.697-2.268-1.28
				c-0.341-0.283-0.757-0.684-0.832-1.352c-0.047-0.698,0.42-1.178,0.775-1.465c0.77-0.559,1.576-0.847,2.379-1.117
				c0.805-0.26,1.616-0.462,2.429-0.64c1.629-0.35,3.257-0.605,4.913-0.796l-0.228,0.94c-0.733-0.492-1.459-1-2.155-1.566
				c-0.678-0.595-1.379-1.178-1.863-2.109c-0.132-0.219-0.195-0.518-0.232-0.82c0.007-0.32,0.079-0.66,0.275-0.918
				c0.372-0.499,0.87-0.751,1.315-0.899c0.912-0.321,1.807-0.418,2.697-0.493c1.78-0.131,3.537-0.065,5.287,0.043
				c1.751,0.117,3.487,0.292,5.231,0.529l0.001,0l-0.312,0.962c-0.957-0.502-1.88-1.074-2.748-1.734
				c-0.866-0.662-1.688-1.402-2.329-2.382c-0.283-0.487-0.644-1.114-0.38-1.931c0.049-0.2,0.201-0.352,0.319-0.507
				c0.142-0.108,0.292-0.255,0.444-0.311c0.307-0.159,0.606-0.226,0.901-0.277c1.165-0.145,2.241,0.017,3.3,0.209
				c2.115,0.401,4.139,1.06,6.129,1.79C600.351,140.015,602.291,140.866,604.198,141.779z"/>
		</g>
	</g>
</g>
</svg>
